<svg version="1.1" id="Layer_1" xmlns="http://www.w3.org/2000/svg" xmlns:xlink="http://www.w3.org/1999/xlink" x="0px" y="0px"
	 width="100%" viewBox="0 0 612 408" enable-background="new 0 0 612 408" xml:space="preserve">
<path fill="#111828" opacity="1.000000" stroke="none" 
	d="
M383.000000,409.000000 
	C255.364471,409.000000 128.228958,409.000000 1.046718,409.000000 
	C1.046718,273.064453 1.046718,137.128922 1.046718,1.096680 
	C204.885544,1.096680 408.771149,1.096680 612.828369,1.096680 
	C612.828369,136.999832 612.828369,272.999878 612.828369,409.000000 
	C536.462219,409.000000 459.981110,409.000000 383.000000,409.000000 
M272.457733,194.113693 
	C272.234375,194.396378 272.010986,194.679047 271.507111,194.872040 
	C271.507111,194.872040 271.218475,194.930450 270.989075,194.391220 
	C270.660980,194.197403 270.332916,194.003601 270.052887,193.897141 
	C270.052887,193.897141 270.141876,193.852203 270.156647,193.073776 
	C266.931000,183.779282 264.422485,174.002106 253.569626,169.022217 
	C251.446732,167.646271 249.323837,166.270325 247.122025,164.158600 
	C247.108978,163.185196 247.095932,162.211792 247.456070,160.667297 
	C248.329529,159.109055 249.202988,157.550797 250.307068,155.500961 
	C250.306580,155.144287 250.306076,154.787613 250.359482,153.615601 
	C250.543365,151.397461 250.727264,149.179321 251.643250,146.809143 
	C252.077545,146.348404 252.845490,145.918686 252.891663,145.421875 
	C253.178497,142.335068 254.286819,138.813644 253.196503,136.258224 
	C252.173080,133.859589 248.826111,132.396545 246.400406,130.663361 
	C240.905441,126.737183 233.345657,126.878067 228.603470,130.896317 
	C223.788696,134.976074 221.669540,144.058044 224.532639,149.612122 
	C226.728607,153.872040 229.335251,157.920212 231.869751,162.373383 
	C231.869751,162.373383 232.080994,162.627106 231.391586,162.908463 
	C229.291794,164.902359 228.873215,168.927444 224.052917,168.399597 
	C213.647644,172.734207 210.580307,177.900742 212.167480,188.953064 
	C212.230667,189.769974 212.293854,190.586884 212.120193,192.138611 
	C213.020187,198.760468 213.920197,205.382324 214.784698,212.709213 
	C214.882462,213.166718 214.980209,213.624222 214.925140,214.994324 
	C215.604904,222.023407 216.284668,229.052490 217.050110,236.518509 
	C217.050110,236.518509 217.144806,236.953598 217.087952,237.882019 
	C216.432861,248.333511 215.777786,258.785004 215.116486,270.126465 
	C215.076309,288.538208 214.989212,306.950043 215.022385,325.361633 
	C215.033417,331.477386 213.350876,338.077881 219.183990,343.452942 
	C218.625046,347.702454 218.066101,351.951996 217.507156,356.201508 
	C221.318314,356.031189 225.129456,355.860870 229.462067,356.115234 
	C229.676529,356.180511 229.890976,356.245819 230.460419,356.687134 
	C231.125412,356.661652 231.790390,356.636169 233.413727,356.800323 
	C237.192230,356.641449 240.970718,356.482574 244.749222,356.323700 
	C244.957611,355.570404 245.166000,354.817108 245.374390,354.063782 
	C240.960526,351.666260 236.546661,349.268707 231.908066,346.343353 
	C231.577850,345.888214 231.247635,345.433105 231.024796,344.172150 
	C231.456650,342.858612 231.569168,340.680084 232.375961,340.382233 
	C235.756638,339.134338 234.905258,336.579193 235.077499,333.372559 
	C237.392807,314.273132 239.708115,295.173676 242.430283,276.654999 
	C245.496201,285.339355 247.541946,294.158234 247.076385,303.499207 
	C246.781586,309.413971 247.118835,315.360199 247.142563,322.175385 
	C247.098389,326.779938 246.817581,331.401672 247.150635,335.978790 
	C247.253937,337.398468 249.023758,338.696930 250.004807,339.982635 
	C250.004807,339.982635 249.936417,340.008026 250.018448,340.911072 
	C250.038345,342.129639 250.058258,343.348236 249.625854,345.111633 
	C249.122330,347.984985 248.379196,350.847382 248.247543,353.737671 
	C248.202515,354.725800 249.732498,356.683807 250.472458,356.650146 
	C253.297287,356.521729 256.093445,355.762085 259.712585,355.595459 
	C265.221558,357.862854 270.641449,357.287170 277.488220,355.366119 
	C271.559052,351.126404 266.726807,347.671021 261.989899,343.452057 
	C263.008514,341.975006 264.027130,340.497925 265.005341,338.992889 
	C265.005341,338.992889 265.016205,339.040771 265.546600,338.418518 
	C265.667786,335.323639 265.789001,332.228729 266.025421,328.280426 
	C266.418549,321.997192 266.972198,315.719055 267.170471,309.429688 
	C267.550446,297.376160 267.911377,285.315857 267.885712,273.259216 
	C267.877380,269.335968 266.808167,265.377380 265.931335,261.501190 
	C264.000580,252.965866 261.883270,244.472748 259.798706,235.436844 
	C259.747314,235.268723 259.695923,235.100616 259.879486,234.238525 
	C259.883240,229.447983 260.110718,224.644104 259.826141,219.870743 
	C259.555939,215.338409 260.883514,213.952621 265.511353,215.233612 
	C271.090607,216.777924 275.960388,215.320602 280.123840,210.155609 
	C285.450623,211.717545 290.484619,212.060913 294.707367,207.226852 
	C296.173431,209.650269 297.483551,212.425064 301.930634,210.040115 
	C314.296997,207.644485 326.663330,205.248840 339.163086,203.706467 
	C339.146942,209.239243 338.981842,214.776749 339.157440,220.303436 
	C339.325287,225.584915 339.847748,230.855118 340.076721,237.041595 
	C340.056061,237.707260 339.992798,238.374710 340.020782,239.038315 
	C341.346008,270.462616 342.637695,301.888519 344.100494,333.306458 
	C344.203003,335.508453 345.578339,337.651215 346.499329,339.882446 
	C346.932404,339.948944 347.365448,340.015442 347.860504,340.855072 
	C347.822754,341.885803 347.785034,342.916534 347.222504,344.344208 
	C343.902191,345.938904 340.576141,347.521698 337.263489,349.132172 
	C334.813599,350.323212 330.952240,350.510620 333.937378,355.003723 
	C338.391876,355.009521 342.851196,355.147827 347.299530,354.984985 
	C352.015472,354.812317 356.720917,354.353485 361.754333,353.268127 
	C361.863403,348.602356 361.972473,343.936554 362.366699,338.679535 
	C362.391357,338.462128 362.416016,338.244720 362.795227,337.315765 
	C363.900513,320.901978 364.942352,304.483490 366.153687,288.077545 
	C366.474670,283.730560 367.317200,279.422089 367.998779,275.898499 
	C368.393066,277.131653 368.956207,278.338165 369.155823,279.602051 
	C371.485718,294.353149 373.688568,309.124634 376.088898,323.864044 
	C376.953247,329.171570 378.257324,334.407471 379.841797,339.874268 
	C380.437317,340.684509 381.032806,341.494781 381.225342,342.962067 
	C380.158295,344.337708 379.091217,345.713348 377.333160,347.245819 
	C373.940887,348.525146 370.288361,349.585785 371.082367,355.068573 
	C375.506531,355.068573 379.794159,355.086243 384.081573,355.065186 
	C395.899567,355.007111 395.899536,355.000702 394.800598,342.108612 
	C394.875763,341.329895 394.950928,340.551178 395.769531,339.580780 
	C396.057434,338.703125 396.345337,337.825470 396.671753,337.019012 
	C396.671753,337.019012 396.633759,337.016907 396.751740,336.031738 
	C396.477142,332.803741 396.202576,329.575714 396.282684,326.165710 
	C396.366882,326.268829 396.514313,326.370087 396.517365,326.475555 
	C396.520355,326.579590 396.393890,326.749786 396.293549,326.776733 
	C396.193848,326.803558 396.055969,326.688232 395.996490,325.678436 
	C395.906921,323.761292 395.817352,321.844147 395.887207,319.031677 
	C395.347687,315.137848 394.468201,311.255707 394.333862,307.347961 
	C393.964935,296.615997 394.067352,285.867767 393.689026,275.136322 
	C393.209320,261.530090 392.439636,247.934036 392.110107,233.638000 
	C392.306244,230.333115 393.002686,226.965042 392.595062,223.736389 
	C391.729218,216.878479 390.288818,210.093094 388.978912,202.683868 
	C391.222992,203.790848 392.518799,204.430038 394.285034,205.550110 
	C395.515015,206.014191 396.744995,206.478287 398.733215,206.967346 
	C399.491852,206.969360 400.250458,206.971359 401.585510,206.901840 
	C402.095154,206.638367 402.604797,206.374893 403.521790,206.087219 
	C403.521790,206.087219 403.927948,206.047256 404.383698,205.831863 
	C404.586975,205.571854 404.790253,205.311844 405.044312,205.071304 
	C405.044312,205.071304 405.060608,205.019409 405.736298,204.905807 
	C408.174896,202.326843 410.613495,199.747879 413.597351,196.814758 
	C414.078369,195.897186 414.559357,194.979630 415.081360,194.117264 
	C415.081360,194.117264 415.149963,194.112579 415.780029,193.883789 
	C418.527039,189.693115 421.274048,185.502426 424.541168,180.822128 
	C425.001007,178.552231 425.460815,176.282333 426.195251,173.379456 
	C428.126556,171.966080 430.057861,170.552689 432.605835,168.858276 
	C438.681793,162.460419 438.664398,159.583542 432.156189,153.432816 
	C431.239044,154.848541 430.455231,156.263779 429.472412,157.523804 
	C428.231873,159.114288 426.829102,160.578201 425.496307,162.096710 
	C424.352509,160.686005 423.208710,159.275299 421.066986,156.633835 
	C420.698151,160.481079 420.436279,163.212601 419.904358,166.497360 
	C419.557007,167.004089 419.209625,167.510818 418.252930,167.799911 
	C414.814728,166.080444 414.454102,169.525482 412.351288,171.338196 
	C409.133789,175.510040 405.916260,179.681885 402.300415,184.171265 
	C401.860199,184.674255 401.420013,185.177231 400.331055,185.601273 
	C399.452728,184.459579 398.256134,183.443634 397.747314,182.155930 
	C394.276337,173.371246 388.899170,166.763855 379.043091,164.933731 
	C378.088196,164.756424 377.196442,164.238770 375.796509,163.352188 
	C369.907318,158.840149 369.853027,158.570297 372.871674,151.866119 
	C373.689270,150.050278 374.482910,148.211014 375.106415,146.322708 
	C377.207367,139.959702 372.686615,130.095230 366.446716,127.792915 
	C365.103699,127.297379 363.370483,127.859482 361.088806,128.008209 
	C358.946686,127.704788 356.721069,127.669724 354.682098,127.034958 
	C351.636230,126.086731 348.968567,124.898735 348.014526,129.621078 
	C347.777100,130.796082 345.875610,131.634872 343.673187,133.559647 
	C345.548859,137.955292 347.675201,142.938400 350.034454,148.691177 
	C351.372223,151.764053 352.709991,154.836929 354.284058,158.542084 
	C355.036743,159.896225 355.789398,161.250366 355.959198,162.825577 
	C355.240265,163.546188 354.521332,164.266800 353.003082,164.976486 
	C339.376862,165.661377 334.614105,176.932693 327.946930,185.963303 
	C327.946930,185.963303 327.930206,185.978729 327.365051,186.223679 
	C326.524567,187.117340 325.684082,188.010986 324.042816,188.916138 
	C315.683350,190.955917 307.323883,192.995682 298.228394,195.032547 
	C296.829620,196.313126 295.430847,197.593704 293.309784,198.940384 
	C291.923767,198.663116 290.537781,198.385834 288.863953,197.702759 
	C288.863953,197.702759 288.570068,197.304626 289.004242,196.679794 
	C290.646210,193.775436 292.288177,190.871078 294.410156,187.663361 
	C295.139954,185.542755 295.869781,183.422150 296.956787,180.695877 
	C297.640594,179.753021 298.324402,178.810165 299.600647,177.898209 
	C300.086884,177.604553 300.573090,177.310898 301.006104,176.989349 
	C301.006104,176.989349 300.996765,177.048706 301.580963,176.996002 
	C302.030243,176.652969 302.479523,176.309937 302.975800,175.996536 
	C302.975800,175.996536 302.969635,175.941696 303.629333,175.757828 
	C309.157928,170.571228 309.334473,167.296890 304.194672,160.790375 
	C302.055634,163.702560 299.960541,166.554871 297.865479,169.407196 
	C297.409821,169.134888 296.954132,168.862595 296.498474,168.590302 
	C296.498474,166.806076 296.498474,165.021851 296.498474,162.677948 
	C292.003479,165.262039 292.423981,169.311905 291.179718,173.191330 
	C290.795288,173.688934 290.410828,174.186539 289.366272,174.898834 
	C287.999756,176.291763 286.633240,177.684692 284.718018,179.479401 
	C281.113892,183.965256 277.509766,188.451096 273.960236,192.976837 
	C273.960236,192.976837 273.991180,192.916763 273.457733,193.045425 
	C273.293671,193.359085 273.129608,193.672745 273.003723,194.003830 
	C273.003723,194.003830 272.988770,193.964615 272.457733,194.113693 
z"/>
<path fill="#20343D" opacity="1.000000" stroke="none" 
	d="
M215.122711,269.236481 
	C215.777786,258.785004 216.432861,248.333511 217.569305,237.429932 
	C222.047012,236.990540 226.061050,237.244171 230.035110,236.952759 
	C234.634933,236.615479 236.318207,238.378799 236.018021,242.972198 
	C235.173401,255.896866 234.725967,268.848083 233.830002,281.768585 
	C233.106918,292.195557 231.959274,302.593079 230.995148,313.451294 
	C230.325333,322.262238 229.660355,330.625610 228.663513,339.203369 
	C227.358597,339.586792 226.388535,339.881897 225.412033,339.905029 
	C216.970551,340.104858 215.994034,339.151459 215.987091,330.877899 
	C215.971603,312.442474 215.980011,294.006927 215.901703,275.571777 
	C215.892731,273.458923 215.394226,271.348206 215.122711,269.236481 
z"/>
<path fill="#273F49" opacity="1.000000" stroke="none" 
	d="
M231.000000,313.003662 
	C231.959274,302.593079 233.106918,292.195557 233.830002,281.768585 
	C234.725967,268.848083 235.173401,255.896866 236.018021,242.972198 
	C236.318207,238.378799 234.634933,236.615479 230.035110,236.952759 
	C226.061050,237.244171 222.047012,236.990540 217.597733,236.965729 
	C217.144806,236.953598 217.050110,236.518509 217.474548,236.232910 
	C231.880020,235.952347 245.861069,235.957367 259.842102,235.962402 
	C261.883270,244.472748 264.000580,252.965866 265.931335,261.501190 
	C266.808167,265.377380 267.877380,269.335968 267.885712,273.259216 
	C267.911377,285.315857 267.550446,297.376160 267.170471,309.429688 
	C266.972198,315.719055 266.418549,321.997192 265.758606,329.035950 
	C265.333252,332.874573 265.174744,335.957672 265.016205,339.040771 
	C265.016205,339.040771 265.005341,338.992889 264.622314,338.992798 
	C263.163940,338.961609 262.088593,338.930481 261.100464,338.501160 
	C262.125336,321.077942 263.073029,304.053406 263.981171,287.026764 
	C264.052063,285.698181 263.846497,284.354828 263.769440,283.018341 
	C263.639313,283.031311 263.509155,283.044281 263.379028,283.057281 
	C262.257538,301.711304 261.136017,320.365356 259.800171,339.205872 
	C259.044983,339.529236 258.504120,339.666138 257.970215,339.364014 
	C257.652252,330.490692 257.124115,322.058319 257.045929,313.621735 
	C256.896179,297.466095 257.450867,281.290283 256.809570,265.158752 
	C256.496979,257.295532 254.313095,249.476868 252.578522,241.727051 
	C252.259735,240.302734 250.029663,239.306229 248.681793,238.112244 
	C247.526291,239.526886 245.528961,240.842926 245.349838,242.371964 
	C244.036530,253.582092 243.087387,264.834900 242.023422,276.074249 
	C239.708115,295.173676 237.392807,314.273132 234.780563,334.064514 
	C233.948593,337.178101 233.404175,339.589722 230.005005,338.520142 
	C230.197311,336.615204 230.514740,335.138489 230.555725,333.654114 
	C230.745789,326.771790 230.859161,319.887360 231.000000,313.003662 
z"/>
<path fill="#82BEF9" opacity="1.000000" stroke="none" 
	d="
M379.360687,339.676056 
	C378.257324,334.407471 376.953247,329.171570 376.088898,323.864044 
	C373.688568,309.124634 371.485718,294.353149 369.155823,279.602051 
	C368.956207,278.338165 368.393066,277.131653 368.101318,275.200867 
	C367.824005,271.815277 367.453125,269.125977 367.062561,266.439545 
	C365.754211,257.439667 364.558319,248.420410 363.026733,239.458572 
	C362.715363,237.636703 361.129333,236.032654 360.130920,234.328217 
	C359.148926,235.867447 358.166901,237.406677 357.121826,238.530411 
	C357.093353,236.429550 357.127899,234.744171 357.618042,233.041260 
	C362.743073,233.004288 367.412537,232.984848 372.254578,233.312927 
	C373.581543,236.071869 371.342041,240.881104 376.991272,240.572372 
	C377.646881,248.636673 378.355835,256.242401 378.944305,263.857422 
	C380.711060,286.719971 383.502380,309.441833 388.043640,331.933746 
	C388.502289,334.205261 388.680481,336.533356 388.546509,338.935913 
	C385.189636,339.249756 382.275177,339.462891 379.360687,339.676056 
z"/>
<path fill="#243942" opacity="1.000000" stroke="none" 
	d="
M242.226852,276.364624 
	C243.087387,264.834900 244.036530,253.582092 245.349838,242.371964 
	C245.528961,240.842926 247.526291,239.526886 248.681793,238.112244 
	C250.029663,239.306229 252.259735,240.302734 252.578522,241.727051 
	C254.313095,249.476868 256.496979,257.295532 256.809570,265.158752 
	C257.450867,281.290283 256.896179,297.466095 257.045929,313.621735 
	C257.124115,322.058319 257.652252,330.490692 257.528168,339.402039 
	C254.698242,339.922089 252.317337,339.965057 249.936417,340.008057 
	C249.936417,340.008026 250.004807,339.982635 249.779510,339.705688 
	C249.035995,337.447540 248.274048,335.493408 248.050873,333.479553 
	C247.602570,329.434387 247.448257,325.356628 247.172638,321.292328 
	C247.118835,315.360199 246.781586,309.413971 247.076385,303.499207 
	C247.541946,294.158234 245.496201,285.339355 242.226852,276.364624 
z"/>
<path fill="#6BA9F8" opacity="1.000000" stroke="none" 
	d="
M357.184875,238.945908 
	C358.166901,237.406677 359.148926,235.867447 360.130920,234.328217 
	C361.129333,236.032654 362.715363,237.636703 363.026733,239.458572 
	C364.558319,248.420410 365.754211,257.439667 367.062561,266.439545 
	C367.453125,269.125977 367.824005,271.815277 368.062073,274.799591 
	C367.317200,279.422089 366.474670,283.730560 366.153687,288.077545 
	C364.942352,304.483490 363.900513,320.901978 362.237000,337.710754 
	C360.806610,338.543213 359.934479,338.980682 358.672852,339.369019 
	C357.513092,339.177277 356.742767,339.034668 355.946411,338.489716 
	C355.869934,334.650269 355.671570,331.207642 355.799622,327.777191 
	C356.071472,320.496735 356.656891,313.226318 356.845490,305.944824 
	C357.037170,298.544464 356.854401,291.135132 356.938477,283.730896 
	C356.981415,279.952423 357.358582,276.177521 357.393433,272.399231 
	C357.464966,264.646515 357.598877,256.884949 357.290375,249.143661 
	C357.194061,246.727798 355.759399,244.365265 354.936340,241.790527 
	C354.935272,241.602768 354.953857,241.227692 355.306183,241.141388 
	C356.167297,240.352020 356.676086,239.648956 357.184875,238.945908 
z"/>
<path fill="#20343D" opacity="1.000000" stroke="none" 
	d="
M376.989563,240.118042 
	C371.342041,240.881104 373.581543,236.071869 372.326416,232.916626 
	C371.981781,230.095306 371.737854,228.017838 371.503113,225.507507 
	C371.417297,223.071564 371.322296,221.068481 371.538330,218.945312 
	C376.343262,211.116348 381.623718,203.565201 377.258972,193.994888 
	C380.255066,192.952728 383.877014,192.592316 385.110809,190.686142 
	C386.530334,188.493027 385.837830,184.932907 386.158936,180.695786 
	C388.154358,184.521088 389.581543,187.257019 391.035889,190.363495 
	C392.899872,194.914383 394.736725,199.094742 396.417999,202.921066 
	C400.015991,202.299011 403.015198,201.780472 406.854187,201.116760 
	C405.978790,203.021484 405.519684,204.020447 405.060608,205.019409 
	C405.060608,205.019409 405.044312,205.071304 404.821106,205.203888 
	C404.347107,205.547501 404.123779,205.784424 403.927948,206.047256 
	C403.927948,206.047256 403.521790,206.087219 403.111267,205.953247 
	C402.136841,206.203964 401.572968,206.588654 401.009094,206.973358 
	C400.250458,206.971359 399.491852,206.969360 398.209656,206.642487 
	C396.395599,205.901505 395.105072,205.485367 393.814575,205.069214 
	C392.518799,204.430038 391.222992,203.790848 388.978912,202.683868 
	C390.288818,210.093094 391.729218,216.878479 392.595062,223.736389 
	C393.002686,226.965042 392.306244,230.333115 391.610443,233.836182 
	C386.899109,235.896103 382.687469,237.757843 378.207581,239.629120 
	C377.622742,239.798447 377.306152,239.958252 376.989563,240.118042 
z"/>
<path fill="#243942" opacity="1.000000" stroke="none" 
	d="
M339.029694,202.853210 
	C326.663330,205.248840 314.296997,207.644485 301.455933,209.630661 
	C300.308960,204.492630 299.636688,199.764038 298.964417,195.035461 
	C307.323883,192.995682 315.683350,190.955917 324.686890,189.104782 
	C327.956055,190.285690 327.956055,190.285690 327.930206,185.978729 
	C327.930206,185.978729 327.946930,185.963303 328.271179,185.842865 
	C329.390503,185.678879 330.697906,185.313324 330.903381,185.640320 
	C333.812744,190.269455 336.840729,189.285400 340.024689,185.411270 
	C342.051788,190.340469 345.395477,192.425079 350.172302,192.367004 
	C349.487183,198.485870 348.853485,204.195923 347.830688,209.913284 
	C343.703644,210.059235 343.054993,207.158844 342.108185,204.526703 
	C341.248535,202.136795 341.228546,202.143982 339.029694,202.853210 
z"/>
<path fill="#59A8F9" opacity="1.000000" stroke="none" 
	d="
M254.223343,169.401260 
	C264.422485,174.002106 266.931000,183.779282 269.811981,193.356216 
	C267.557404,190.189575 264.496490,189.488571 260.728394,189.807465 
	C260.224091,188.603622 259.897064,187.645065 259.263092,185.786758 
	C259.130432,187.487473 259.071106,188.247940 258.633118,188.923279 
	C251.126114,187.600586 244.005051,186.317001 236.860077,185.184341 
	C235.978851,185.044647 234.970047,185.709824 233.819611,185.881866 
	C233.462021,185.729889 233.298889,185.655945 233.150131,185.678192 
	C233.004150,185.700043 232.747986,185.878250 232.752625,185.888123 
	C234.171402,188.912033 235.608612,191.927292 236.744461,195.145660 
	C234.535538,195.207458 232.499496,195.447189 230.742706,194.856445 
	C224.552460,192.774872 218.458038,190.408356 212.327255,188.149933 
	C210.580307,177.900742 213.647644,172.734207 224.520477,168.730621 
	C228.456802,175.981995 235.745834,180.183487 243.187103,179.551819 
	C249.355988,179.028152 252.096649,176.507431 254.223343,169.401260 
M230.508636,183.469116 
	C230.508636,183.469116 230.522400,183.506271 230.508636,183.469116 
z"/>
<path fill="#6BA9F8" opacity="1.000000" stroke="none" 
	d="
M378.475800,239.619598 
	C382.687469,237.757843 386.899109,235.896103 391.452881,234.183975 
	C392.439636,247.934036 393.209320,261.530090 393.689026,275.136322 
	C394.067352,285.867767 393.964935,296.615997 394.333862,307.347961 
	C394.468201,311.255707 395.347687,315.137848 395.663818,319.526306 
	C395.440460,320.020905 395.143829,320.075531 395.073700,319.696411 
	C391.297852,311.573334 389.056305,303.523956 389.844421,294.828979 
	C389.887543,294.353333 389.658112,293.855103 389.568207,293.365051 
	C386.675110,277.591522 383.830139,261.808868 380.838593,246.054047 
	C380.418121,243.839523 379.281128,241.761047 378.475800,239.619598 
z"/>
<path fill="#88C1F6" opacity="1.000000" stroke="none" 
	d="
M354.953857,241.227692 
	C354.953857,241.227692 354.935272,241.602768 354.531830,241.799774 
	C351.566895,241.893143 350.064880,242.826096 349.996246,245.676941 
	C349.756989,255.612534 348.817902,265.571167 349.238800,275.474579 
	C350.138214,296.638489 351.721832,317.773346 352.698975,339.005066 
	C351.925598,339.070435 351.478394,339.050812 351.023743,338.560547 
	C350.919220,320.695587 349.554871,303.402557 347.142609,286.114868 
	C345.909912,288.635040 345.073151,291.175720 345.107452,293.704559 
	C345.282379,306.602295 345.536835,319.503784 346.136871,332.386566 
	C346.245819,334.725494 348.091339,336.983521 348.827728,339.396057 
	C347.800812,339.615936 347.081299,339.718719 346.361816,339.821503 
	C345.578339,337.651215 344.203003,335.508453 344.100494,333.306458 
	C342.637695,301.888519 341.346008,270.462616 340.020782,239.038315 
	C339.992798,238.374710 340.056061,237.707260 340.451477,236.739166 
	C345.535431,238.033722 350.244629,239.630707 354.953857,241.227692 
z"/>
<path fill="#4AA3FD" opacity="1.000000" stroke="none" 
	d="
M212.247375,188.551498 
	C218.458038,190.408356 224.552460,192.774872 230.742706,194.856445 
	C232.499496,195.447189 234.535538,195.207458 236.984390,195.408783 
	C240.717865,201.529465 243.107391,202.444016 249.236542,199.600082 
	C241.412170,197.853043 238.536942,191.046692 234.020355,186.002045 
	C234.970047,185.709824 235.978851,185.044647 236.860077,185.184341 
	C244.005051,186.317001 251.126114,187.600586 258.642273,189.380081 
	C259.025879,193.276901 259.021729,196.631790 258.670624,200.015991 
	C257.100281,200.518097 255.876907,200.990906 254.653519,201.463699 
	C254.651505,201.893341 254.649490,202.322983 254.647491,202.752609 
	C256.531494,203.491104 258.358917,204.580994 260.311218,204.895477 
	C264.471069,205.565613 266.771393,207.695709 266.753235,212.136993 
	C263.980591,212.507843 261.493958,212.673706 258.689941,212.710602 
	C246.573792,208.123886 234.781540,203.648651 222.963242,199.243332 
	C222.068878,198.909943 220.989365,199.073273 219.733032,198.833313 
	C218.339676,197.743500 217.209198,196.826096 216.051453,195.581497 
	C215.369827,194.194504 214.715454,193.134674 213.892761,191.888763 
	C213.268646,191.603043 212.812836,191.503418 212.357025,191.403809 
	C212.293854,190.586884 212.230667,189.769974 212.247375,188.551498 
z"/>
<path fill="#20343D" opacity="1.000000" stroke="none" 
	d="
M355.306183,241.141388 
	C350.244629,239.630707 345.535431,238.033722 340.520264,236.283508 
	C339.847748,230.855118 339.325287,225.584915 339.157440,220.303436 
	C338.981842,214.776749 339.146942,209.239243 339.096375,203.279831 
	C341.228546,202.143982 341.248535,202.136795 342.108185,204.526703 
	C343.054993,207.158844 343.703644,210.059235 348.070557,210.135757 
	C351.307587,213.940292 353.915649,217.529663 356.616150,221.523956 
	C356.826569,223.316483 356.944580,224.704102 356.962402,226.516068 
	C356.962311,228.979874 357.062378,231.019348 357.162476,233.058807 
	C357.127899,234.744171 357.093353,236.429550 357.121826,238.530411 
	C356.676086,239.648956 356.167297,240.352020 355.306183,241.141388 
z"/>
<path fill="#2D3F48" opacity="1.000000" stroke="none" 
	d="
M231.759277,162.062561 
	C229.335251,157.920212 226.728607,153.872040 224.532639,149.612122 
	C221.669540,144.058044 223.788696,134.976074 228.603470,130.896317 
	C233.345657,126.878067 240.905441,126.737183 246.400406,130.663361 
	C248.826111,132.396545 252.173080,133.859589 253.196503,136.258224 
	C254.286819,138.813644 253.178497,142.335068 252.891663,145.421875 
	C252.845490,145.918686 252.077545,146.348404 251.046692,146.644287 
	C248.734375,143.926453 247.018600,141.373459 245.699463,139.410645 
	C243.073334,141.064941 240.840393,143.302139 238.230133,143.904587 
	C235.002457,144.649536 234.870712,146.331100 234.977066,149.071808 
	C232.513962,149.657700 230.198471,149.939331 229.125885,150.069778 
	C230.119995,154.597046 230.939636,158.329803 231.759277,162.062561 
z"/>
<path fill="#273F49" opacity="1.000000" stroke="none" 
	d="
M391.008728,189.992950 
	C389.581543,187.257019 388.154358,184.521088 386.158936,180.695786 
	C385.837830,184.932907 386.530334,188.493027 385.110809,190.686142 
	C383.877014,192.592316 380.255066,192.952728 377.034180,193.759979 
	C374.014160,190.399353 371.910553,187.755707 375.997406,183.826981 
	C379.038788,180.903275 375.795990,169.443695 371.976990,166.622375 
	C371.924622,165.510468 371.916351,164.767670 372.341919,164.018677 
	C373.942352,163.968033 375.108856,163.923584 376.275391,163.879120 
	C377.196442,164.238770 378.088196,164.756424 379.043091,164.933731 
	C388.899170,166.763855 394.276337,173.371246 397.747314,182.155930 
	C398.256134,183.443634 399.452728,184.459579 400.547668,185.978424 
	C400.509094,187.237289 400.253937,188.118988 399.999390,189.000336 
	C400.000000,189.000000 400.000549,188.999039 399.694275,188.870148 
	C396.594940,189.158493 393.801819,189.575729 391.008728,189.992950 
z"/>
<path fill="#273F49" opacity="1.000000" stroke="none" 
	d="
M350.223755,191.958191 
	C345.395477,192.425079 342.051788,190.340469 340.024689,185.411270 
	C336.840729,189.285400 333.812744,190.269455 330.903381,185.640320 
	C330.697906,185.313324 329.390503,185.678879 328.277435,185.833344 
	C334.614105,176.932693 339.376862,165.661377 353.757690,164.997543 
	C354.983917,165.007339 355.455505,164.996078 355.883545,165.312042 
	C355.772583,166.073471 355.705200,166.507690 355.317413,167.044098 
	C353.023834,172.476746 350.962524,177.777893 349.168213,183.167908 
	C348.884460,184.020218 350.013489,185.252777 350.123566,186.346344 
	C350.310333,188.201523 350.205841,190.086014 350.223755,191.958191 
z"/>
<path fill="#273F49" opacity="1.000000" stroke="none" 
	d="
M424.021057,181.311768 
	C421.274048,185.502426 418.527039,189.693115 415.476532,193.676025 
	C415.834625,190.960114 415.070892,190.003006 412.496674,191.001938 
	C408.850067,192.417007 406.537598,190.485031 404.666718,187.742249 
	C403.855011,186.552307 403.345520,185.156204 402.698761,183.853729 
	C405.916260,179.681885 409.133789,175.510040 412.934998,171.320633 
	C417.019501,174.639313 420.520294,177.975540 424.021057,181.311768 
z"/>
<path fill="#243942" opacity="1.000000" stroke="none" 
	d="
M402.499573,184.012497 
	C403.345520,185.156204 403.855011,186.552307 404.666718,187.742249 
	C406.537598,190.485031 408.850067,192.417007 412.496674,191.001938 
	C415.070892,190.003006 415.834625,190.960114 415.161499,193.790405 
	C415.149963,194.112579 415.081360,194.117264 414.746552,194.203629 
	C413.958527,195.249634 413.505310,196.209274 413.052124,197.168915 
	C410.613495,199.747879 408.174896,202.326843 405.398438,204.962601 
	C405.519684,204.020447 405.978790,203.021484 406.854187,201.116760 
	C403.015198,201.780472 400.015991,202.299011 396.417999,202.921066 
	C394.736725,199.094742 392.899872,194.914383 391.035889,190.363495 
	C393.801819,189.575729 396.594940,189.158493 399.722412,188.919968 
	C400.056824,189.098663 399.998779,189.000687 399.998779,189.000687 
	C400.253937,188.118988 400.509094,187.237289 400.872009,186.017899 
	C401.420013,185.177231 401.860199,184.674255 402.499573,184.012497 
z"/>
<path fill="#243942" opacity="1.000000" stroke="none" 
	d="
M349.801544,147.921494 
	C347.675201,142.938400 345.548859,137.955292 343.673187,133.559647 
	C345.875610,131.634872 347.777100,130.796082 348.014526,129.621078 
	C348.968567,124.898735 351.636230,126.086731 354.682098,127.034958 
	C356.721069,127.669724 358.946686,127.704788 361.804901,128.139175 
	C363.522919,131.933990 364.524841,135.597839 365.130249,139.211685 
	C359.728302,139.791901 354.722870,140.422134 349.801544,141.041779 
	C349.801544,143.679901 349.801544,145.800690 349.801544,147.921494 
z"/>
<path fill="#A5CFF0" opacity="1.000000" stroke="none" 
	d="
M253.896484,169.211731 
	C252.096649,176.507431 249.355988,179.028152 243.187103,179.551819 
	C235.745834,180.183487 228.456802,175.981995 224.851578,168.748108 
	C228.873215,168.927444 229.291794,164.902359 232.012085,162.976303 
	C235.058731,164.490784 237.484863,165.937424 240.081451,167.677216 
	C240.838242,169.997162 241.424561,172.023941 242.168030,174.593918 
	C238.737198,173.653000 236.742035,173.105820 233.402222,172.189865 
	C238.075104,177.239685 241.402313,177.685745 246.084915,175.008270 
	C245.724304,172.393295 245.366425,169.798141 245.257828,167.000671 
	C246.071716,166.163696 246.636337,165.529053 247.200958,164.894394 
	C249.323837,166.270325 251.446732,167.646271 253.896484,169.211731 
z"/>
<path fill="#EC897B" opacity="1.000000" stroke="none" 
	d="
M239.911011,167.384079 
	C237.484863,165.937424 235.058731,164.490784 232.356781,162.835632 
	C232.080994,162.627106 231.869751,162.373383 231.814514,162.217972 
	C230.939636,158.329803 230.119995,154.597046 229.125885,150.069778 
	C230.198471,149.939331 232.513962,149.657700 235.186798,149.118408 
	C235.544144,148.860764 235.969284,148.913300 236.264511,149.086685 
	C240.045624,151.855042 243.531509,154.450027 247.020874,157.464462 
	C247.043854,159.002075 247.063370,160.120239 247.082870,161.238388 
	C247.095932,162.211792 247.108978,163.185196 247.161499,164.526505 
	C246.636337,165.529053 246.071716,166.163696 244.834229,166.954559 
	C242.744583,167.201889 241.327805,167.292984 239.911011,167.384079 
z"/>
<path fill="#1A79D7" opacity="1.000000" stroke="none" 
	d="
M259.820404,235.699615 
	C245.861069,235.957367 231.880020,235.952347 217.431717,236.014450 
	C216.284668,229.052490 215.604904,222.023407 215.198181,214.760590 
	C216.252792,215.381683 217.034348,216.236511 217.845581,217.540558 
	C217.900986,220.300751 217.441605,222.762497 218.098816,224.877243 
	C218.672455,226.723068 220.222900,229.203156 221.824570,229.642365 
	C233.940781,232.964844 246.229126,235.349670 259.036682,233.924622 
	C259.320374,234.394669 259.483368,234.663040 259.644562,234.932526 
	C259.695923,235.100616 259.747314,235.268723 259.820404,235.699615 
z"/>
<path fill="#EC897B" opacity="1.000000" stroke="none" 
	d="
M356.542053,162.604507 
	C355.789398,161.250366 355.036743,159.896225 354.167419,157.953827 
	C354.065186,157.184921 354.079590,157.004257 354.446045,156.847656 
	C356.129944,156.057938 357.523987,155.329636 358.781128,154.413422 
	C361.835876,152.187042 364.827026,149.873337 367.990814,147.272980 
	C368.383667,146.296127 368.629456,145.641098 369.092865,144.874207 
	C369.601654,144.597641 369.832550,144.371399 370.314178,144.248520 
	C370.994659,145.772903 372.110016,147.882324 371.616028,148.373672 
	C367.504822,152.462845 370.181122,157.142120 369.721802,161.588913 
	C365.582092,163.848679 362.155182,167.929474 357.060730,163.530136 
	C356.772003,163.016251 356.657043,162.810379 356.542053,162.604507 
z"/>
<path fill="#2D3F48" opacity="1.000000" stroke="none" 
	d="
M368.875275,144.986069 
	C368.629456,145.641098 368.383667,146.296127 367.709167,147.107941 
	C367.090546,147.157501 366.900604,147.050262 366.631348,146.568878 
	C366.387360,144.125717 366.222656,142.056702 366.089722,139.858948 
	C366.069214,139.445557 365.887085,139.284271 365.558716,139.236053 
	C365.542358,139.225769 365.526764,139.261703 365.526764,139.261703 
	C364.524841,135.597839 363.522919,131.933990 362.169006,128.102264 
	C363.370483,127.859482 365.103699,127.297379 366.446716,127.792915 
	C372.686615,130.095230 377.207367,139.959702 375.106415,146.322708 
	C374.482910,148.211014 373.689270,150.050278 372.871674,151.866119 
	C369.853027,158.570297 369.907318,158.840149 376.035950,163.615662 
	C375.108856,163.923584 373.942352,163.968033 372.086761,163.839447 
	C370.963593,162.962204 370.529480,162.258026 370.095367,161.553864 
	C370.181122,157.142120 367.504822,152.462845 371.616028,148.373672 
	C372.110016,147.882324 370.994659,145.772903 370.214996,143.970978 
	C369.083160,143.331177 368.361542,143.133865 367.639923,142.936539 
	C368.051697,143.619720 368.463470,144.302902 368.875275,144.986069 
z"/>
<path fill="#59A8F9" opacity="1.000000" stroke="none" 
	d="
M293.930176,187.966736 
	C292.288177,190.871078 290.646210,193.775436 288.629395,196.939392 
	C288.254578,197.198990 288.025909,196.957306 287.938599,196.607330 
	C285.173279,190.727051 281.358032,189.818649 273.905640,192.936951 
	C277.509766,188.451096 281.113892,183.965256 285.317871,179.312134 
	C288.588562,182.085495 291.259369,185.026123 293.930176,187.966736 
z"/>
<path fill="#4AA3FD" opacity="1.000000" stroke="none" 
	d="
M273.932922,192.956894 
	C281.358032,189.818649 285.173279,190.727051 287.526428,196.722061 
	C285.789856,197.077194 284.378143,196.967651 282.859497,196.777008 
	C282.474243,196.602036 282.236084,196.667297 281.736572,197.034515 
	C280.997711,197.240219 280.560394,197.303131 279.921204,197.183807 
	C279.227661,197.518860 278.735931,198.036148 278.027832,198.750412 
	C277.264038,199.130569 276.716614,199.313766 275.892212,199.216461 
	C271.396332,199.282242 267.177429,199.628540 262.885071,199.602875 
	C262.176331,196.171524 261.540985,193.112137 260.905670,190.052765 
	C264.496490,189.488571 267.557404,190.189575 269.804596,193.745422 
	C270.141876,193.852203 270.052887,193.897141 270.208344,194.065628 
	C270.648682,194.466232 270.933594,194.698349 271.218475,194.930450 
	C271.218475,194.930450 271.507111,194.872040 271.871002,194.779938 
	C272.486176,194.446747 272.737457,194.205673 272.988770,193.964600 
	C272.988770,193.964615 273.003723,194.003830 273.178894,193.840302 
	C273.598267,193.450150 273.810638,193.196808 273.991180,192.916763 
	C273.991180,192.916763 273.960236,192.976837 273.932922,192.956894 
z"/>
<path fill="#EAA598" opacity="1.000000" stroke="none" 
	d="
M366.057953,139.987701 
	C366.222656,142.056702 366.387360,144.125717 366.353638,146.469299 
	C364.930817,146.127762 362.939484,144.699844 362.600098,145.020477 
	C359.035553,148.388199 353.709869,150.611252 354.093964,156.823593 
	C354.079590,157.004257 354.065186,157.184921 354.049255,157.637695 
	C352.709991,154.836929 351.372223,151.764053 349.917999,148.306335 
	C349.801544,145.800690 349.801544,143.679901 349.801544,141.041779 
	C354.722870,140.422134 359.728302,139.791901 365.130249,139.211685 
	C365.526764,139.261703 365.542358,139.225769 365.633026,139.452057 
	C365.723694,139.678329 366.057953,139.987701 366.057953,139.987701 
z"/>
<path fill="#EC897B" opacity="1.000000" stroke="none" 
	d="
M294.167603,206.781311 
	C290.484619,212.060913 285.450623,211.717545 279.496155,209.913849 
	C277.282593,209.450195 275.696716,209.228287 274.071198,208.727463 
	C274.007233,208.262344 273.982880,208.076126 273.928802,207.737503 
	C273.835663,207.386185 273.738190,207.205673 273.523132,206.630981 
	C273.454865,204.824142 273.470154,203.429901 273.828033,202.055023 
	C275.085449,202.080811 276.000336,202.087219 276.979248,202.440720 
	C279.298615,204.207336 281.385101,206.220947 283.845093,206.920059 
	C288.651733,208.285995 290.054138,206.594391 289.474213,202.026184 
	C286.560608,201.700058 283.844574,201.396042 281.476959,201.002380 
	C284.267517,199.977997 286.709656,199.043289 289.151764,198.108582 
	C290.537781,198.385834 291.923767,198.663116 293.693848,199.298706 
	C294.107788,202.031784 294.137695,204.406555 294.167603,206.781311 
z"/>
<path fill="#2D3F48" opacity="1.000000" stroke="none" 
	d="
M347.747314,343.947266 
	C347.785034,342.916534 347.822754,341.885803 348.222382,340.482239 
	C352.736603,344.155670 356.217926,344.162903 360.299255,340.028625 
	C361.072968,339.706268 361.577271,339.488525 362.081543,339.270782 
	C361.972473,343.936554 361.863403,348.602356 361.104370,353.635864 
	C357.959351,353.965179 355.464233,353.926697 352.877502,353.557526 
	C350.955750,350.943390 348.105255,349.117981 349.441772,345.409607 
	C349.532318,345.158325 348.341949,344.445435 347.747314,343.947266 
z"/>
<path fill="#435D64" opacity="1.000000" stroke="none" 
	d="
M230.002792,338.944855 
	C233.404175,339.589722 233.948593,337.178101 234.674438,334.473999 
	C234.905258,336.579193 235.756638,339.134338 232.375961,340.382233 
	C231.569168,340.680084 231.456650,342.858612 230.602509,344.585938 
	C229.442581,345.007690 228.704941,345.015717 227.557159,344.961609 
	C225.768143,344.984528 224.389282,345.069611 222.679230,345.103210 
	C221.902023,345.034790 221.455963,345.017883 220.888382,344.785614 
	C220.252975,343.984497 219.739105,343.398773 219.225235,342.813019 
	C213.350876,338.077881 215.033417,331.477386 215.022385,325.361633 
	C214.989212,306.950043 215.076309,288.538208 215.119598,269.681458 
	C215.394226,271.348206 215.892731,273.458923 215.901703,275.571777 
	C215.980011,294.006927 215.971603,312.442474 215.987091,330.877899 
	C215.994034,339.151459 216.970551,340.104858 225.412033,339.905029 
	C226.388535,339.881897 227.358597,339.586792 228.915451,339.194031 
	C229.667114,338.961823 229.834961,338.953339 230.002792,338.944855 
z"/>
<path fill="#177DFB" opacity="1.000000" stroke="none" 
	d="
M258.900299,355.238190 
	C256.093445,355.762085 253.297287,356.521729 250.472458,356.650146 
	C249.732498,356.683807 248.202515,354.725800 248.247543,353.737671 
	C248.379196,350.847382 249.122330,347.984985 250.233322,344.909302 
	C253.245804,344.863037 255.650803,345.019135 258.283386,345.411377 
	C261.823547,348.715210 260.452301,351.973022 258.900299,355.238190 
z"/>
<path fill="#4192E5" opacity="1.000000" stroke="none" 
	d="
M259.306458,355.416809 
	C260.452301,351.973022 261.823547,348.715210 258.592194,345.300781 
	C259.747162,344.707886 260.820831,344.461792 261.894531,344.215698 
	C266.726807,347.671021 271.559052,351.126404 277.488220,355.366119 
	C270.641449,357.287170 265.221558,357.862854 259.306458,355.416809 
z"/>
<path fill="#EAA598" opacity="1.000000" stroke="none" 
	d="
M420.174377,165.944138 
	C420.436279,163.212601 420.698151,160.481079 421.066986,156.633835 
	C423.208710,159.275299 424.352509,160.686005 425.496307,162.096710 
	C426.829102,160.578201 428.231873,159.114288 429.472412,157.523804 
	C430.455231,156.263779 431.239044,154.848541 432.156189,153.432816 
	C438.664398,159.583542 438.681793,162.460419 432.360809,168.652863 
	C431.440094,167.284821 430.778137,165.136826 430.086395,165.127182 
	C426.786835,165.081177 423.479156,165.615952 420.174377,165.944138 
z"/>
<path fill="#2D3F48" opacity="1.000000" stroke="none" 
	d="
M378.024139,347.088959 
	C379.091217,345.713348 380.158295,344.337708 381.808167,342.827942 
	C386.289093,342.818054 390.187164,342.942261 394.058624,343.519897 
	C394.012054,345.803619 394.212738,347.672211 393.903778,349.452301 
	C393.647308,350.930115 393.105316,353.164795 392.126801,353.522034 
	C390.656067,354.058990 388.453461,353.698883 386.989532,352.918335 
	C383.855896,351.247467 380.996094,349.063049 378.024139,347.088959 
z"/>
<path fill="#EAA598" opacity="1.000000" stroke="none" 
	d="
M291.720978,172.852097 
	C292.423981,169.311905 292.003479,165.262039 296.498474,162.677948 
	C296.498474,165.021851 296.498474,166.806076 296.498474,168.590302 
	C296.954132,168.862595 297.409821,169.134888 297.865479,169.407196 
	C299.960541,166.554871 302.055634,163.702560 304.194672,160.790375 
	C309.334473,167.296890 309.157928,170.571228 303.385376,175.489380 
	C302.784729,173.582291 302.428009,171.943634 302.071289,170.304977 
	C298.599304,171.065094 294.394958,168.849274 291.720978,172.852097 
z"/>
<path fill="#4192E5" opacity="1.000000" stroke="none" 
	d="
M274.110840,209.006378 
	C275.696716,209.228287 277.282593,209.450195 278.994751,209.836395 
	C275.960388,215.320602 271.090607,216.777924 265.511353,215.233612 
	C260.883514,213.952621 259.555939,215.338409 259.826141,219.870743 
	C260.110718,224.644104 259.883240,229.447983 259.762024,234.585526 
	C259.483368,234.663040 259.320374,234.394669 259.047943,233.530167 
	C258.318512,227.942169 257.696747,222.951416 257.095276,217.592056 
	C257.142181,216.485641 257.168701,215.747818 257.423920,214.844574 
	C258.104187,214.065964 258.555725,213.452774 259.007263,212.839569 
	C261.493958,212.673706 263.980591,212.507843 267.041382,212.141968 
	C267.807739,211.935455 268.000000,211.928925 268.549316,211.935455 
	C270.641174,210.967819 272.376007,209.987106 274.110840,209.006378 
z"/>
<path fill="#EAA598" opacity="1.000000" stroke="none" 
	d="
M247.269470,160.952850 
	C247.063370,160.120239 247.043854,159.002075 247.219910,157.145020 
	C248.068985,152.395233 244.066788,146.311157 240.242035,146.223663 
	C238.839035,146.191574 237.394745,147.964020 235.969284,148.913300 
	C235.969284,148.913300 235.544144,148.860764 235.334412,148.814163 
	C234.870712,146.331100 235.002457,144.649536 238.230133,143.904587 
	C240.840393,143.302139 243.073334,141.064941 245.699463,139.410645 
	C247.018600,141.373459 248.734375,143.926453 250.680664,146.720306 
	C250.727264,149.179321 250.543365,151.397461 250.195343,154.261337 
	C250.046295,155.268906 250.061386,155.630722 250.076447,155.992554 
	C249.202988,157.550797 248.329529,159.109055 247.269470,160.952850 
z"/>
<path fill="#435D64" opacity="1.000000" stroke="none" 
	d="
M377.678650,347.167389 
	C380.996094,349.063049 383.855896,351.247467 386.989532,352.918335 
	C388.453461,353.698883 390.656067,354.058990 392.126801,353.522034 
	C393.105316,353.164795 393.647308,350.930115 393.903778,349.452301 
	C394.212738,347.672211 394.012054,345.803619 394.199158,343.411774 
	C394.366333,342.850189 394.720184,342.891571 394.720184,342.891571 
	C395.899536,355.000702 395.899567,355.007111 384.081573,355.065186 
	C379.794159,355.086243 375.506531,355.068573 371.082367,355.068573 
	C370.288361,349.585785 373.940887,348.525146 377.678650,347.167389 
z"/>
<path fill="#243942" opacity="1.000000" stroke="none" 
	d="
M347.484924,344.145752 
	C348.341949,344.445435 349.532318,345.158325 349.441772,345.409607 
	C348.105255,349.117981 350.955750,350.943390 352.412659,353.582336 
	C345.692780,354.287354 339.346191,354.636902 332.999573,354.986450 
	C330.952240,350.510620 334.813599,350.323212 337.263489,349.132172 
	C340.576141,347.521698 343.902191,345.938904 347.484924,344.145752 
z"/>
<path fill="#EC897B" opacity="1.000000" stroke="none" 
	d="
M291.450348,173.021713 
	C294.394958,168.849274 298.599304,171.065094 302.071289,170.304977 
	C302.428009,171.943634 302.784729,173.582291 303.055542,175.581329 
	C302.969635,175.941696 302.975800,175.996536 302.695618,176.090271 
	C301.942566,176.472244 301.469666,176.760483 300.996765,177.048706 
	C300.996765,177.048706 301.006104,176.989349 300.763184,177.080658 
	C300.016266,177.403748 299.512238,177.635544 299.008209,177.867340 
	C298.324402,178.810165 297.640594,179.753021 296.459778,180.902557 
	C293.983948,178.967529 292.005157,176.825836 290.026367,174.684143 
	C290.410828,174.186539 290.795288,173.688934 291.450348,173.021713 
z"/>
<path fill="#EC897B" opacity="1.000000" stroke="none" 
	d="
M420.039368,166.220749 
	C423.479156,165.615952 426.786835,165.081177 430.086395,165.127182 
	C430.778137,165.136826 431.440094,167.284821 432.052490,168.793365 
	C430.057861,170.552689 428.126556,171.966080 425.713196,173.657471 
	C423.108185,171.962845 420.985229,169.990189 418.862274,168.017548 
	C419.209625,167.510818 419.557007,167.004089 420.039368,166.220749 
z"/>
<path fill="#435D64" opacity="1.000000" stroke="none" 
	d="
M294.437500,207.004089 
	C294.137695,204.406555 294.107788,202.031784 294.054993,199.265656 
	C295.430847,197.593704 296.829620,196.313126 298.596405,195.033997 
	C299.636688,199.764038 300.308960,204.492630 301.029388,209.637756 
	C297.483551,212.425064 296.173431,209.650269 294.437500,207.004089 
z"/>
<path fill="#4192E5" opacity="1.000000" stroke="none" 
	d="
M232.132782,346.871155 
	C236.546661,349.268707 240.960526,351.666260 245.374390,354.063782 
	C245.166000,354.817108 244.957611,355.570404 244.749222,356.323700 
	C240.970718,356.482574 237.192230,356.641449 232.740845,356.568848 
	C231.413773,356.328613 230.759613,356.319855 230.105438,356.311096 
	C229.890976,356.245819 229.676529,356.180511 229.244751,355.696716 
	C229.027435,355.278168 229.065887,354.857300 229.443542,354.862366 
	C231.630112,353.963593 233.439026,353.059692 235.247955,352.155823 
	C234.355728,350.692017 233.459488,349.230652 232.574799,347.762329 
	C232.404251,347.479248 232.278946,347.168915 232.132782,346.871155 
z"/>
<path fill="#435D64" opacity="1.000000" stroke="none" 
	d="
M418.557617,167.908722 
	C420.985229,169.990189 423.108185,171.962845 425.575867,173.973969 
	C425.460815,176.282333 425.001007,178.552231 424.281128,181.066956 
	C420.520294,177.975540 417.019501,174.639313 413.214172,171.143524 
	C414.454102,169.525482 414.814728,166.080444 418.557617,167.908722 
z"/>
<path fill="#A5CFF0" opacity="1.000000" stroke="none" 
	d="
M289.696320,174.791489 
	C292.005157,176.825836 293.983948,178.967529 296.281189,181.205383 
	C295.869781,183.422150 295.139954,185.542755 294.170166,187.815048 
	C291.259369,185.026123 288.588562,182.085495 285.592224,179.111252 
	C286.633240,177.684692 287.999756,176.291763 289.696320,174.791489 
z"/>
<path fill="#278EFA" opacity="1.000000" stroke="none" 
	d="
M232.020416,346.607239 
	C232.278946,347.168915 232.404251,347.479248 232.574799,347.762329 
	C233.459488,349.230652 234.355728,350.692017 235.247955,352.155823 
	C233.439026,353.059692 231.630112,353.963593 229.151703,354.721680 
	C227.635864,354.404419 226.789505,354.232941 226.031281,353.688354 
	C226.711914,350.863312 227.304398,348.411285 227.919281,345.725769 
	C227.941666,345.492249 227.967316,345.023743 227.967316,345.023743 
	C228.704941,345.015717 229.442581,345.007690 230.548813,344.988831 
	C231.247635,345.433105 231.577850,345.888214 232.020416,346.607239 
z"/>
<path fill="#435D64" opacity="1.000000" stroke="none" 
	d="
M261.942200,343.833862 
	C260.820831,344.461792 259.747162,344.707886 258.364624,345.064606 
	C255.650803,345.019135 253.245804,344.863037 250.459473,344.636902 
	C250.058258,343.348236 250.038345,342.129639 249.977432,340.459564 
	C252.317337,339.965057 254.698242,339.922089 257.521210,339.841064 
	C258.504120,339.666138 259.044983,339.529236 260.050049,339.178101 
	C260.680603,338.942352 260.846924,338.920868 261.013214,338.899353 
	C262.088593,338.930481 263.163940,338.961609 264.642517,339.006805 
	C264.027130,340.497925 263.008514,341.975006 261.942200,343.833862 
z"/>
<path fill="#EAA598" opacity="1.000000" stroke="none" 
	d="
M394.760376,342.500092 
	C394.720184,342.891571 394.366333,342.850189 394.225800,342.958313 
	C390.187164,342.942261 386.289093,342.818054 382.009644,342.499420 
	C381.032806,341.494781 380.437317,340.684509 379.601257,339.775146 
	C382.275177,339.462891 385.189636,339.249756 388.963318,339.032562 
	C391.516937,339.039703 393.211365,339.050903 394.919922,339.242401 
	C394.934052,339.422699 395.026093,339.772461 395.026062,339.772461 
	C394.950928,340.551178 394.875763,341.329895 394.760376,342.500092 
z"/>
<path fill="#1A79D7" opacity="1.000000" stroke="none" 
	d="
M225.943146,354.061462 
	C226.789505,354.232941 227.635864,354.404419 228.774048,354.716614 
	C229.065887,354.857300 229.027435,355.278168 228.984024,355.484375 
	C225.129456,355.860870 221.318314,356.031189 217.507141,356.201508 
	C218.066101,351.951996 218.625046,347.702454 219.204620,343.132996 
	C219.739105,343.398773 220.252975,343.984497 220.702682,345.092041 
	C219.952286,348.344482 219.266052,351.075104 218.579803,353.805756 
	C221.034256,353.890991 223.488708,353.976227 225.943146,354.061462 
z"/>
<path fill="#EAA598" opacity="1.000000" stroke="none" 
	d="
M360.029846,340.133240 
	C356.217926,344.162903 352.736603,344.155670 348.191406,340.095703 
	C347.365448,340.015442 346.932404,339.948944 346.430573,339.851990 
	C347.081299,339.718719 347.800812,339.615936 349.147644,339.423462 
	C350.193726,339.232880 350.612488,339.132050 351.031219,339.031250 
	C351.478394,339.050812 351.925598,339.070435 353.064148,339.084595 
	C354.494476,339.016754 355.233459,338.954407 355.972443,338.892059 
	C356.742767,339.034668 357.513092,339.177277 358.791382,339.531311 
	C359.526917,339.902649 359.770416,340.032806 360.029846,340.133240 
z"/>
<path fill="#EAA598" opacity="1.000000" stroke="none" 
	d="
M276.915192,202.093628 
	C276.000336,202.087219 275.085449,202.080811 273.734833,201.807770 
	C273.248291,201.372452 273.197540,201.203751 273.430054,200.968185 
	C274.531921,200.433197 275.350555,199.965073 276.169189,199.496948 
	C276.716614,199.313766 277.264038,199.130569 278.313568,198.701996 
	C279.251465,198.093094 279.687256,197.729568 280.123047,197.366028 
	C280.560394,197.303131 280.997711,197.240219 281.970703,197.088165 
	C282.506378,196.998993 282.966431,196.858078 282.966431,196.858093 
	C284.378143,196.967651 285.789856,197.077194 287.613739,197.072021 
	C288.025909,196.957306 288.254578,197.198990 288.412323,197.251801 
	C288.570068,197.304626 288.863953,197.702759 289.007874,197.905670 
	C286.709656,199.043289 284.267517,199.977997 281.228333,200.834610 
	C279.392578,201.202225 278.153870,201.647919 276.915192,202.093628 
z"/>
<path fill="#1A79D7" opacity="1.000000" stroke="none" 
	d="
M212.238617,191.771210 
	C212.812836,191.503418 213.268646,191.603043 213.877548,192.237854 
	C214.341034,193.876846 214.651413,194.980667 214.961365,196.531067 
	C215.305054,200.982437 215.649200,204.987213 215.806854,209.262131 
	C215.353638,210.356232 215.086914,211.180206 214.820190,212.004181 
	C213.920197,205.382324 213.020187,198.760468 212.238617,191.771210 
z"/>
<path fill="#278EFA" opacity="1.000000" stroke="none" 
	d="
M214.802444,212.356689 
	C215.086914,211.180206 215.353638,210.356232 215.891861,209.589081 
	C218.108047,211.429855 220.052734,213.213806 221.852203,215.317017 
	C220.409958,216.121292 219.112930,216.606308 217.815903,217.091339 
	C217.034348,216.236511 216.252792,215.381683 215.274597,214.304291 
	C214.980209,213.624222 214.882462,213.166718 214.802444,212.356689 
z"/>
<path fill="#435D64" opacity="1.000000" stroke="none" 
	d="
M333.468475,354.995087 
	C339.346191,354.636902 345.692780,354.287354 352.504272,353.913025 
	C355.464233,353.926697 357.959351,353.965179 360.942688,354.011658 
	C356.720917,354.353485 352.015472,354.812317 347.299530,354.984985 
	C342.851196,355.147827 338.391876,355.009521 333.468475,354.995087 
z"/>
<path fill="#82BEF9" opacity="1.000000" stroke="none" 
	d="
M395.397827,339.676636 
	C395.026093,339.772461 394.934052,339.422699 394.946899,338.769684 
	C395.021118,332.102966 395.082458,326.089233 395.143829,320.075531 
	C395.143829,320.075531 395.440460,320.020905 395.584137,319.973938 
	C395.817352,321.844147 395.906921,323.761292 395.924805,326.083923 
	C395.853088,326.489380 395.928009,326.347717 395.928009,326.347717 
	C396.202576,329.575714 396.477142,332.803741 396.675049,336.513977 
	C396.598389,336.996216 396.633270,336.947815 396.633240,336.947815 
	C396.345337,337.825470 396.057434,338.703125 395.397827,339.676636 
z"/>
<path fill="#435D64" opacity="1.000000" stroke="none" 
	d="
M247.157593,321.733856 
	C247.448257,325.356628 247.602570,329.434387 248.050873,333.479553 
	C248.274048,335.493408 249.035995,337.447540 249.792419,339.739807 
	C249.023758,338.696930 247.253937,337.398468 247.150635,335.978790 
	C246.817581,331.401672 247.098389,326.779938 247.157593,321.733856 
z"/>
<path fill="#273F49" opacity="1.000000" stroke="none" 
	d="
M327.647644,186.101196 
	C327.956055,190.285690 327.956055,190.285690 325.087311,189.099030 
	C325.684082,188.010986 326.524567,187.117340 327.647644,186.101196 
z"/>
<path fill="#435D64" opacity="1.000000" stroke="none" 
	d="
M265.281403,338.729645 
	C265.174744,335.957672 265.333252,332.874573 265.700989,329.462646 
	C265.789001,332.228729 265.667786,335.323639 265.281403,338.729645 
z"/>
<path fill="#243942" opacity="1.000000" stroke="none" 
	d="
M394.049805,205.309662 
	C395.105072,205.485367 396.395599,205.901505 397.830536,206.630005 
	C396.744995,206.478287 395.515015,206.014191 394.049805,205.309662 
z"/>
<path fill="#435D64" opacity="1.000000" stroke="none" 
	d="
M356.250610,162.715042 
	C356.657043,162.810379 356.772003,163.016251 356.871979,163.758316 
	C356.547058,164.524628 356.237091,164.754730 355.927124,164.984833 
	C355.455505,164.996078 354.983917,165.007339 354.157349,165.002991 
	C354.521332,164.266800 355.240265,163.546188 356.250610,162.715042 
z"/>
<path fill="#88C1F6" opacity="1.000000" stroke="none" 
	d="
M360.299255,340.028625 
	C359.770416,340.032806 359.526917,339.902649 359.180847,339.580444 
	C359.934479,338.980682 360.806610,338.543213 362.059723,338.066528 
	C362.416016,338.244720 362.391357,338.462128 362.224121,338.975159 
	C361.577271,339.488525 361.072968,339.706268 360.299255,340.028625 
z"/>
<path fill="#273F49" opacity="1.000000" stroke="none" 
	d="
M413.324738,196.991852 
	C413.505310,196.209274 413.958527,195.249634 414.726074,194.176025 
	C414.559357,194.979630 414.078369,195.897186 413.324738,196.991852 
z"/>
<path fill="#243942" opacity="1.000000" stroke="none" 
	d="
M401.297302,206.937592 
	C401.572968,206.588654 402.136841,206.203964 402.907593,205.965347 
	C402.604797,206.374893 402.095154,206.638367 401.297302,206.937592 
z"/>
<path fill="#1A79D7" opacity="1.000000" stroke="none" 
	d="
M230.282928,356.499115 
	C230.759613,356.319855 231.413773,356.328613 232.261658,356.474060 
	C231.790390,356.636169 231.125412,356.661652 230.282928,356.499115 
z"/>
<path fill="#EAA598" opacity="1.000000" stroke="none" 
	d="
M396.652527,336.983398 
	C396.633270,336.947815 396.598389,336.996216 396.616089,337.006561 
	C396.633759,337.016907 396.671753,337.019012 396.652527,336.983398 
z"/>
<path fill="#EAA598" opacity="1.000000" stroke="none" 
	d="
M301.288879,177.022369 
	C301.469666,176.760483 301.942566,176.472244 302.672119,176.075470 
	C302.479523,176.309937 302.030243,176.652969 301.288879,177.022369 
z"/>
<path fill="#EAA598" opacity="1.000000" stroke="none" 
	d="
M299.304443,177.882782 
	C299.512238,177.635544 300.016266,177.403748 300.789795,177.094604 
	C300.573090,177.310898 300.086884,177.604553 299.304443,177.882782 
z"/>
<path fill="#59A8F9" opacity="1.000000" stroke="none" 
	d="
M273.724457,192.981094 
	C273.810638,193.196808 273.598267,193.450150 273.159790,193.831589 
	C273.129608,193.672745 273.293671,193.359085 273.724457,192.981094 
z"/>
<path fill="#EAA598" opacity="1.000000" stroke="none" 
	d="
M396.105347,326.256714 
	C395.928009,326.347717 395.853088,326.489380 395.893951,326.562317 
	C396.055969,326.688232 396.193848,326.803558 396.293549,326.776733 
	C396.393890,326.749786 396.520355,326.579590 396.517365,326.475555 
	C396.514313,326.370087 396.366882,326.268829 396.105347,326.256714 
z"/>
<path fill="#59A8F9" opacity="1.000000" stroke="none" 
	d="
M271.103760,194.660828 
	C270.933594,194.698349 270.648682,194.466232 270.184326,194.021957 
	C270.332916,194.003601 270.660980,194.197403 271.103760,194.660828 
z"/>
<path fill="#59A8F9" opacity="1.000000" stroke="none" 
	d="
M272.723267,194.039154 
	C272.737457,194.205673 272.486176,194.446747 272.011230,194.824768 
	C272.010986,194.679047 272.234375,194.396378 272.723267,194.039154 
z"/>
<path fill="#2D3F48" opacity="1.000000" stroke="none" 
	d="
M250.191772,155.746765 
	C250.061386,155.630722 250.046295,155.268906 250.168396,154.669006 
	C250.306076,154.787613 250.306580,155.144287 250.191772,155.746765 
z"/>
<path fill="#243942" opacity="1.000000" stroke="none" 
	d="
M404.155823,205.939560 
	C404.123779,205.784424 404.347107,205.547501 404.795715,205.194153 
	C404.790253,205.311844 404.586975,205.571854 404.155823,205.939560 
z"/>
<path fill="#2D3F48" opacity="1.000000" stroke="none" 
	d="
M230.005005,338.520142 
	C229.834961,338.953339 229.667114,338.961823 229.247330,338.979614 
	C229.660355,330.625610 230.325333,322.262238 230.995148,313.451294 
	C230.859161,319.887360 230.745789,326.771790 230.555725,333.654114 
	C230.514740,335.138489 230.197311,336.615204 230.005005,338.520142 
z"/>
<path fill="#2D3F48" opacity="1.000000" stroke="none" 
	d="
M261.100464,338.501160 
	C260.846924,338.920868 260.680603,338.942352 260.264404,338.991638 
	C261.136017,320.365356 262.257538,301.711304 263.379028,283.057281 
	C263.509155,283.044281 263.639313,283.031311 263.769440,283.018341 
	C263.846497,284.354828 264.052063,285.698181 263.981171,287.026764 
	C263.073029,304.053406 262.125336,321.077942 261.100464,338.501160 
z"/>
<path fill="#74B2FB" opacity="1.000000" stroke="none" 
	d="
M395.073700,319.696411 
	C395.082458,326.089233 395.021118,332.102966 394.932770,338.589386 
	C393.211365,339.050903 391.516937,339.039703 389.405701,338.931854 
	C388.680481,336.533356 388.502289,334.205261 388.043640,331.933746 
	C383.502380,309.441833 380.711060,286.719971 378.944305,263.857422 
	C378.355835,256.242401 377.646881,248.636673 376.991272,240.572388 
	C377.306152,239.958252 377.622742,239.798447 378.207581,239.629120 
	C379.281128,241.761047 380.418121,243.839523 380.838593,246.054047 
	C383.830139,261.808868 386.675110,277.591522 389.568207,293.365051 
	C389.658112,293.855103 389.887543,294.353333 389.844421,294.828979 
	C389.056305,303.523956 391.297852,311.573334 395.073700,319.696411 
z"/>
<path fill="#A5CFF0" opacity="1.000000" stroke="none" 
	d="
M357.618042,233.041260 
	C357.062378,231.019348 356.962311,228.979874 357.316223,226.532074 
	C362.344788,226.062592 366.919342,226.001480 371.493927,225.940369 
	C371.737854,228.017838 371.981781,230.095306 372.153809,232.569092 
	C367.412537,232.984848 362.743073,233.004288 357.618042,233.041260 
z"/>
<path fill="#74B2FB" opacity="1.000000" stroke="none" 
	d="
M355.946411,338.489716 
	C355.233459,338.954407 354.494476,339.016754 353.390320,338.999603 
	C351.721832,317.773346 350.138214,296.638489 349.238800,275.474579 
	C348.817902,265.571167 349.756989,255.612534 349.996246,245.676941 
	C350.064880,242.826096 351.566895,241.893143 354.532898,241.987549 
	C355.759399,244.365265 357.194061,246.727798 357.290375,249.143661 
	C357.598877,256.884949 357.464966,264.646515 357.393433,272.399231 
	C357.358582,276.177521 356.981415,279.952423 356.938477,283.730896 
	C356.854401,291.135132 357.037170,298.544464 356.845490,305.944824 
	C356.656891,313.226318 356.071472,320.496735 355.799622,327.777191 
	C355.671570,331.207642 355.869934,334.650269 355.946411,338.489716 
z"/>
<path fill="#E8EAEB" opacity="1.000000" stroke="none" 
	d="
M371.503113,225.507507 
	C366.919342,226.001480 362.344788,226.062592 357.416382,226.107727 
	C356.944580,224.704102 356.826569,223.316483 356.746643,221.115158 
	C356.402374,202.514938 356.020111,184.728424 355.637817,166.941910 
	C355.705200,166.507690 355.772583,166.073471 355.883545,165.312042 
	C356.237091,164.754730 356.547058,164.524628 357.045776,164.066345 
	C362.155182,167.929474 365.582092,163.848679 369.721802,161.588898 
	C370.529480,162.258026 370.963593,162.962204 371.652893,163.845627 
	C371.916351,164.767670 371.924622,165.510468 371.788086,166.992050 
	C371.504578,184.842346 371.365906,201.953873 371.227234,219.065384 
	C371.322296,221.068481 371.417297,223.071564 371.503113,225.507507 
M367.171143,211.286362 
	C366.396332,199.000000 365.689911,186.708496 364.765656,174.433411 
	C364.641052,172.778946 363.420471,171.207016 362.237610,168.536194 
	C361.437836,170.531387 361.044556,171.100479 360.994354,171.698349 
	C359.881317,184.956741 358.775970,198.215973 357.741333,211.480667 
	C357.410400,215.723434 359.177399,219.057114 363.624542,223.008362 
	C365.036163,218.724701 366.111237,215.462219 367.171143,211.286362 
z"/>
<path fill="#435D64" opacity="1.000000" stroke="none" 
	d="
M371.538330,218.945312 
	C371.365906,201.953873 371.504578,184.842346 371.832153,167.361160 
	C375.795990,169.443695 379.038788,180.903275 375.997406,183.826981 
	C371.910553,187.755707 374.014160,190.399353 376.604736,193.758636 
	C381.623718,203.565201 376.343262,211.116348 371.538330,218.945312 
z"/>
<path fill="#435D64" opacity="1.000000" stroke="none" 
	d="
M355.317444,167.044098 
	C356.020111,184.728424 356.402374,202.514938 356.654175,220.710236 
	C353.915649,217.529663 351.307587,213.940292 348.459656,210.128448 
	C348.853485,204.195923 349.487183,198.485870 350.172302,192.367004 
	C350.205841,190.086014 350.310333,188.201523 350.123566,186.346344 
	C350.013489,185.252777 348.884460,184.020218 349.168213,183.167908 
	C350.962524,177.777893 353.023834,172.476746 355.317444,167.044098 
z"/>
<path fill="#278EFA" opacity="1.000000" stroke="none" 
	d="
M233.819611,185.881866 
	C238.536942,191.046692 241.412170,197.853043 249.236542,199.600082 
	C243.107391,202.444016 240.717865,201.529465 237.285339,195.205856 
	C235.608612,191.927292 234.171402,188.912033 232.752625,185.888123 
	C232.747986,185.878250 233.004150,185.700043 233.150131,185.678192 
	C233.298889,185.655945 233.462021,185.729889 233.819611,185.881866 
z"/>
<path fill="#278EFA" opacity="1.000000" stroke="none" 
	d="
M260.728394,189.807465 
	C261.540985,193.112137 262.176331,196.171524 262.491943,199.619537 
	C261.120667,200.001007 260.069122,199.993851 259.017578,199.986694 
	C259.021729,196.631790 259.025879,193.276901 259.020935,189.465210 
	C259.071106,188.247940 259.130432,187.487473 259.263092,185.786758 
	C259.897064,187.645065 260.224091,188.603622 260.728394,189.807465 
z"/>
<path fill="#278EFA" opacity="1.000000" stroke="none" 
	d="
M230.515518,183.487701 
	C230.522400,183.506271 230.508636,183.469116 230.515518,183.487701 
z"/>
<path fill="#82BEF9" opacity="1.000000" stroke="none" 
	d="
M351.023743,338.560577 
	C350.612488,339.132050 350.193726,339.232880 349.455078,339.306335 
	C348.091339,336.983521 346.245819,334.725494 346.136871,332.386566 
	C345.536835,319.503784 345.282379,306.602295 345.107452,293.704559 
	C345.073151,291.175720 345.909912,288.635040 347.142609,286.114868 
	C349.554871,303.402557 350.919220,320.695587 351.023743,338.560577 
z"/>
<path fill="#177DFB" opacity="1.000000" stroke="none" 
	d="
M221.997421,214.997772 
	C220.052734,213.213806 218.108047,211.429855 216.078354,209.318939 
	C215.649200,204.987213 215.305054,200.982437 215.240997,196.488159 
	C215.706955,195.968658 215.892838,195.938660 216.078720,195.908676 
	C217.209198,196.826096 218.339676,197.743500 219.808228,199.171204 
	C222.308243,201.590210 224.174408,204.176514 226.690155,205.274689 
	C233.051727,208.051697 239.656525,210.308441 246.261536,212.475983 
	C249.802002,213.637863 253.544113,214.185287 257.195221,215.009979 
	C257.168701,215.747818 257.142181,216.485641 256.693542,217.631302 
	C244.422516,221.806610 232.845016,222.515076 221.997421,214.997772 
z"/>
<path fill="#278EFA" opacity="1.000000" stroke="none" 
	d="
M257.423920,214.844574 
	C253.544113,214.185287 249.802002,213.637863 246.261536,212.475983 
	C239.656525,210.308441 233.051727,208.051697 226.690155,205.274689 
	C224.174408,204.176514 222.308243,201.590210 220.071106,199.343597 
	C220.989365,199.073273 222.068878,198.909943 222.963242,199.243332 
	C234.781540,203.648651 246.573792,208.123886 258.689911,212.710602 
	C258.555725,213.452774 258.104187,214.065964 257.423920,214.844574 
z"/>
<path fill="#59A8F9" opacity="1.000000" stroke="none" 
	d="
M258.670624,200.015991 
	C260.069122,199.993851 261.120667,200.001007 262.565369,199.991501 
	C267.177429,199.628540 271.396332,199.282242 275.892212,199.216461 
	C275.350555,199.965073 274.531921,200.433197 273.125793,200.713242 
	C267.243225,199.868591 266.527130,200.538040 267.234222,205.522522 
	C267.537170,207.658142 267.871979,209.789230 268.192291,211.922379 
	C268.000000,211.928925 267.807739,211.935455 267.327362,211.937012 
	C266.771393,207.695709 264.471069,205.565613 260.311218,204.895477 
	C258.358917,204.580994 256.531494,203.491104 254.647491,202.752609 
	C254.649490,202.322983 254.651505,201.893341 254.653519,201.463699 
	C255.876907,200.990906 257.100281,200.518097 258.670624,200.015991 
z"/>
<path fill="#278EFA" opacity="1.000000" stroke="none" 
	d="
M216.051453,195.581497 
	C215.892838,195.938660 215.706955,195.968658 215.241440,196.041580 
	C214.651413,194.980667 214.341034,193.876846 214.045868,192.423950 
	C214.715454,193.134674 215.369827,194.194504 216.051453,195.581497 
z"/>
<path fill="#273F49" opacity="1.000000" stroke="none" 
	d="
M399.999390,189.000336 
	C399.998779,189.000687 400.056824,189.098663 400.028687,189.048859 
	C400.000549,188.999039 400.000000,189.000000 399.999390,189.000336 
z"/>
<path fill="#E8EAEB" opacity="1.000000" stroke="none" 
	d="
M240.081451,167.677216 
	C241.327805,167.292984 242.744583,167.201889 244.584961,167.156891 
	C245.366425,169.798141 245.724304,172.393295 246.084915,175.008270 
	C241.402313,177.685745 238.075104,177.239685 233.402222,172.189865 
	C236.742035,173.105820 238.737198,173.653000 242.168030,174.593918 
	C241.424561,172.023941 240.838242,169.997162 240.081451,167.677216 
z"/>
<path fill="#FB9F8B" opacity="1.000000" stroke="none" 
	d="
M236.264511,149.086685 
	C237.394745,147.964020 238.839035,146.191574 240.242035,146.223663 
	C244.066788,146.311157 248.068985,152.395233 247.216431,156.725555 
	C243.531509,154.450027 240.045624,151.855042 236.264511,149.086685 
z"/>
<path fill="#1487FD" opacity="1.000000" stroke="none" 
	d="
M221.852203,215.317017 
	C232.845016,222.515076 244.422516,221.806610 256.673218,217.999893 
	C257.696747,222.951416 258.318512,227.942169 258.929016,233.327393 
	C246.229126,235.349670 233.940781,232.964844 221.824570,229.642365 
	C220.222900,229.203156 218.672455,226.723068 218.098816,224.877243 
	C217.441605,222.762497 217.900986,220.300751 217.845581,217.540558 
	C219.112930,216.606308 220.409958,216.121292 221.852203,215.317017 
z"/>
<path fill="#FB9F8B" opacity="1.000000" stroke="none" 
	d="
M354.446045,156.847656 
	C353.709869,150.611252 359.035553,148.388199 362.600098,145.020477 
	C362.939484,144.699844 364.930817,146.127762 366.432922,146.843475 
	C366.900604,147.050262 367.090546,147.157501 367.562134,147.429764 
	C364.827026,149.873337 361.835876,152.187042 358.781128,154.413422 
	C357.523987,155.329636 356.129944,156.057938 354.446045,156.847656 
z"/>
<path fill="#243942" opacity="1.000000" stroke="none" 
	d="
M369.092865,144.874207 
	C368.463470,144.302902 368.051697,143.619720 367.639923,142.936539 
	C368.361542,143.133865 369.083160,143.331177 369.903961,143.806061 
	C369.832550,144.371399 369.601654,144.597641 369.092865,144.874207 
z"/>
<path fill="#243942" opacity="1.000000" stroke="none" 
	d="
M366.089722,139.858948 
	C366.057953,139.987701 365.723694,139.678329 365.649384,139.462326 
	C365.887085,139.284271 366.069214,139.445557 366.089722,139.858948 
z"/>
<path fill="#59A8F9" opacity="1.000000" stroke="none" 
	d="
M279.921204,197.183807 
	C279.687256,197.729568 279.251465,198.093094 278.529938,198.505035 
	C278.735931,198.036148 279.227661,197.518860 279.921204,197.183807 
z"/>
<path fill="#59A8F9" opacity="1.000000" stroke="none" 
	d="
M282.859497,196.777008 
	C282.966431,196.858078 282.506378,196.998993 282.272217,196.945343 
	C282.236084,196.667297 282.474243,196.602036 282.859497,196.777008 
z"/>
<path fill="#A5CFF0" opacity="1.000000" stroke="none" 
	d="
M268.549316,211.935455 
	C267.871979,209.789230 267.537170,207.658142 267.234222,205.522522 
	C266.527130,200.538040 267.243225,199.868591 272.842529,200.780106 
	C273.197540,201.203751 273.248291,201.372452 273.392273,201.788391 
	C273.470154,203.429901 273.454865,204.824142 273.476868,206.801392 
	C273.556549,207.645798 273.704651,207.814301 273.958557,207.889893 
	C273.982880,208.076126 274.007233,208.262344 274.071198,208.727478 
	C272.376007,209.987106 270.641174,210.967819 268.549316,211.935455 
z"/>
<path fill="#FB9F8B" opacity="1.000000" stroke="none" 
	d="
M276.979248,202.440704 
	C278.153870,201.647919 279.392578,201.202225 280.879883,200.924286 
	C283.844574,201.396042 286.560608,201.700058 289.474213,202.026184 
	C290.054138,206.594391 288.651733,208.285995 283.845093,206.920059 
	C281.385101,206.220947 279.298615,204.207336 276.979248,202.440704 
z"/>
<path fill="#EAA598" opacity="1.000000" stroke="none" 
	d="
M273.928802,207.737503 
	C273.704651,207.814301 273.556549,207.645798 273.560425,207.213974 
	C273.738190,207.205673 273.835663,207.386185 273.928802,207.737503 
z"/>
<path fill="#1487FD" opacity="1.000000" stroke="none" 
	d="
M226.031281,353.688385 
	C223.488708,353.976227 221.034256,353.890991 218.579803,353.805756 
	C219.266052,351.075104 219.952286,348.344482 220.824219,345.307404 
	C221.455963,345.017883 221.902023,345.034790 222.988663,345.282013 
	C225.051788,345.661285 226.474335,345.810272 227.896881,345.959259 
	C227.304398,348.411285 226.711914,350.863312 226.031281,353.688385 
z"/>
<path fill="#1A79D7" opacity="1.000000" stroke="none" 
	d="
M227.919266,345.725769 
	C226.474335,345.810272 225.051788,345.661285 223.319824,345.333496 
	C224.389282,345.069611 225.768143,344.984528 227.557159,344.961609 
	C227.967316,345.023743 227.941666,345.492249 227.919266,345.725769 
z"/>
<path fill="#F8CF7F" opacity="1.000000" stroke="none" 
	d="
M367.178741,211.743042 
	C366.111237,215.462219 365.036163,218.724701 363.624542,223.008362 
	C359.177399,219.057114 357.410400,215.723434 357.741333,211.480667 
	C358.775970,198.215973 359.881317,184.956741 360.994354,171.698349 
	C361.044556,171.100479 361.437836,170.531387 362.237610,168.536194 
	C363.420471,171.207016 364.641052,172.778946 364.765656,174.433411 
	C365.689911,186.708496 366.396332,199.000000 367.178741,211.743042 
z"/>
</svg>