<svg version="1.1" id="Layer_1" xmlns="http://www.w3.org/2000/svg" xmlns:xlink="http://www.w3.org/1999/xlink" x="0px" y="0px"
	 width="100%" viewBox="0 0 512 512" enable-background="new 0 0 512 512" xml:space="preserve">
<path fill="#010101" opacity="1.000000" stroke="none" 
	d="
M303.000000,513.000000 
	C203.357529,513.000000 104.215027,512.980896 5.072667,513.084412 
	C1.808467,513.087830 0.894241,512.647400 0.896762,509.074463 
	C1.015287,341.115509 1.016676,173.156479 0.892545,5.197567 
	C0.889776,1.450425 1.835076,0.912610 5.300489,0.914627 
	C173.092834,1.012285 340.885223,1.011368 508.677582,0.919651 
	C512.083679,0.917789 513.114807,1.367792 513.111877,5.175617 
	C512.982361,173.134537 512.985229,341.093567 513.100769,509.052521 
	C513.103210,512.580627 512.260864,513.094299 508.949219,513.088623 
	C440.466309,512.970886 371.983124,513.000000 303.000000,513.000000 
z"/>
<path fill="#E5EAF8" opacity="1.000000" stroke="none" 
	d="
M52.745796,347.711182 
	C57.744949,342.208557 63.558262,338.588104 69.911018,336.065430 
	C89.669060,328.219513 109.569962,320.733215 129.324753,312.879303 
	C132.424423,311.646973 133.229095,312.832062 134.395844,315.199402 
	C142.621719,331.889587 150.947388,348.530701 159.269012,365.173553 
	C164.990982,376.617218 172.793106,378.798553 183.537247,371.755920 
	C185.704086,370.335571 186.383377,370.655914 188.128586,372.529297 
	C194.312653,379.167511 193.739609,386.412354 192.243378,394.657135 
	C186.242905,427.721588 180.759048,460.881378 175.345535,494.048584 
	C174.752335,497.683014 173.331390,498.075958 170.256363,498.059540 
	C148.927612,497.945831 127.597214,497.910614 106.269318,498.087921 
	C102.765038,498.117065 101.891602,497.248962 101.912598,493.736572 
	C102.072998,466.909180 102.001129,440.080383 101.998703,413.252045 
	C101.998566,411.752655 102.080833,410.243073 101.940033,408.755768 
	C101.525497,404.377167 98.509445,401.362152 94.605530,401.303314 
	C90.772858,401.245483 87.536812,404.308289 87.077797,408.555786 
	C86.917442,410.039642 87.002609,411.551788 87.002426,413.050995 
	C86.999146,439.879333 86.908157,466.708374 87.103050,493.535278 
	C87.130959,497.376007 86.073463,498.163666 82.431725,498.091156 
	C69.939102,497.842438 57.438801,497.979279 44.479626,497.891235 
	C42.096893,496.004425 42.225060,493.596008 42.222187,491.289246 
	C42.178265,456.021027 41.888718,420.749115 42.359238,385.486359 
	C42.534370,372.361145 43.834103,359.127899 52.745796,347.711182 
z"/>
<path fill="#F1D0A4" opacity="1.000000" stroke="none" 
	d="
M161.721222,133.425201 
	C196.445023,131.970215 228.510849,122.826691 257.806091,104.533936 
	C260.431152,102.894768 261.661224,103.424118 263.509918,105.504471 
	C269.369629,112.098396 275.454041,118.492615 281.449432,124.965996 
	C282.680664,126.295349 283.888885,127.495575 283.851105,129.634857 
	C283.448700,152.432800 284.977295,175.285278 283.109680,198.025360 
	C280.333679,231.826752 251.392151,257.429993 217.350739,257.155579 
	C208.776413,257.086426 200.490616,255.667679 192.236465,252.329941 
	C178.872635,243.169937 169.884186,231.118561 164.558578,216.252731 
	C161.837952,208.658447 160.313644,200.870529 160.335617,192.773041 
	C160.382187,175.614380 160.344864,158.455505 160.355072,141.296707 
	C160.356262,139.300385 160.265320,137.295532 160.824890,134.906830 
	C161.121643,134.246567 161.277252,134.000153 161.721222,133.425201 
z"/>
<path fill="#566573" opacity="1.000000" stroke="none" 
	d="
M181.737061,23.444042 
	C236.736633,-0.057784 300.288574,36.198860 308.089508,94.993896 
	C309.545624,105.968674 308.725891,116.944801 309.099823,127.915543 
	C309.193024,130.649597 308.156311,130.746918 305.825012,130.219727 
	C301.932861,129.339569 298.668701,128.982986 298.058105,123.487595 
	C297.431671,117.849632 292.029602,114.506622 288.507904,110.374519 
	C283.543121,104.549217 278.156555,99.075356 272.824799,93.572884 
	C266.094818,86.627434 260.130798,85.706909 251.808105,90.775864 
	C239.097702,98.517136 225.833969,104.970467 211.676636,109.610886 
	C192.162354,116.007195 172.132706,118.577744 151.666519,117.783585 
	C145.933319,117.561104 141.143570,118.951622 137.348999,123.878944 
	C134.551208,124.079147 134.669464,122.016533 134.614594,120.525520 
	C133.266876,83.906670 144.030899,52.385612 173.437180,28.766487 
	C175.910706,26.779757 178.752319,25.370310 181.737061,23.444042 
z"/>
<path fill="#E4E8F7" opacity="1.000000" stroke="none" 
	d="
M241.450851,432.441223 
	C247.868790,429.361237 248.991302,427.068604 247.752213,419.840576 
	C245.814850,408.539398 244.054626,397.204926 241.911499,385.943115 
	C240.597137,379.036285 246.396515,375.723999 248.966980,370.805023 
	C249.745010,369.316162 250.918777,371.136749 251.730011,371.649963 
	C263.194763,378.903503 270.385864,376.882263 276.543823,364.590149 
	C281.894318,353.909882 287.229645,343.221985 292.767029,332.257019 
	C293.165955,331.858185 293.369507,331.739838 293.865265,331.819946 
	C289.176239,346.862946 286.730164,362.045471 288.370056,377.711121 
	C291.528839,407.886841 304.937469,432.464447 329.014526,451.010132 
	C332.343109,453.574005 333.925446,456.085907 333.779877,460.471954 
	C333.409729,471.624908 333.528473,482.800720 333.735138,493.962128 
	C333.796753,497.290375 332.799469,498.099030 329.548431,498.077209 
	C307.885498,497.931580 286.220398,497.917419 264.557953,498.095764 
	C261.441559,498.121429 260.586029,496.955719 260.167053,494.289459 
	C258.462311,483.441254 256.639801,472.611542 254.856186,461.775757 
	C253.657333,454.492523 252.000580,452.723663 245.392334,452.029358 
	C240.505447,446.236084 240.682800,439.555542 241.450851,432.441223 
z"/>
<path fill="#1AB689" opacity="1.000000" stroke="none" 
	d="
M480.311218,356.631226 
	C480.589386,357.441620 480.713470,357.886963 480.813782,358.681152 
	C480.191956,365.055695 480.749542,371.098114 480.641235,377.547119 
	C480.717896,378.444366 480.681427,378.923828 480.446045,379.707336 
	C479.429230,383.236908 478.853119,386.510345 478.242554,390.169678 
	C478.176849,390.549408 478.332214,390.756897 478.257233,390.862610 
	C476.964111,392.936432 476.584076,395.134338 476.221283,397.714600 
	C476.021667,398.037476 475.993164,398.009155 476.013153,398.007599 
	C475.299042,399.422791 474.725647,400.898407 474.214142,402.756256 
	C474.029144,403.048004 473.994324,403.009827 474.020172,403.010010 
	C473.549133,403.418793 473.503632,404.027222 473.223877,404.855072 
	C473.099731,405.123230 473.065887,405.049500 473.106079,405.044037 
	C472.514801,405.415039 472.505707,406.095825 472.228394,407.001373 
	C459.010803,434.100861 437.508362,450.111847 408.522430,455.999329 
	C391.862610,459.383270 375.445312,457.800842 359.314636,451.089050 
	C347.453461,443.829987 338.046082,434.521576 330.371979,423.422211 
	C328.975800,421.402802 327.140381,419.518677 327.624146,416.414490 
	C327.948639,415.948517 328.119507,415.795441 328.943848,415.522644 
	C329.807495,415.463928 330.017700,415.524902 330.503479,415.751343 
	C330.936096,416.055695 331.093140,416.194611 331.449249,416.567139 
	C331.764191,416.963440 331.880035,417.126099 332.159180,417.531860 
	C332.432709,417.931702 332.542938,418.088379 332.832275,418.465576 
	C333.144226,418.820984 333.277039,418.955872 333.871704,419.443542 
	C334.505737,419.908142 334.677917,420.020050 335.115906,420.307129 
	C336.870789,421.541473 338.154938,422.811279 339.456604,424.516815 
	C339.993073,425.269867 340.300232,425.791992 340.863586,426.473633 
	C341.190338,426.801636 341.325714,426.925781 341.679321,427.213867 
	C342.203949,427.571533 342.515869,427.755859 343.078430,428.053040 
	C343.638641,428.357178 343.937195,428.562866 344.409363,428.981384 
	C344.721222,429.295105 344.839386,429.424866 345.309143,429.930603 
	C345.914276,430.532227 346.178467,430.744720 346.671021,431.080994 
	C347.035431,431.309723 347.180725,431.403320 347.538269,431.647766 
	C347.888275,431.905151 348.026031,432.011658 348.570404,432.448242 
	C349.387451,433.105896 349.795685,433.436523 350.480652,433.844727 
	C350.876953,434.066742 351.037170,434.155914 351.441956,434.377747 
	C352.021515,434.687164 352.356018,434.864838 352.953552,435.175262 
	C353.390625,435.403320 353.564270,435.499451 353.993530,435.751343 
	C355.232117,436.603149 356.277008,437.183289 357.696960,437.685791 
	C358.167969,437.846344 358.353027,437.917694 358.807770,438.109711 
	C359.426208,438.401306 359.771851,438.578278 360.372406,438.883850 
	C360.799988,439.090179 360.969818,439.173492 361.393127,439.380707 
	C361.816010,439.584717 361.985382,439.664795 362.410278,439.860596 
	C362.837708,440.049835 363.009583,440.123383 363.442139,440.300598 
	C364.054382,440.536133 364.406067,440.667664 365.028931,440.888824 
	C365.479187,441.045898 365.658478,441.113037 366.103058,441.291870 
	C366.720123,441.560913 367.071533,441.719147 367.698853,441.982117 
	C368.164276,442.152069 368.353455,442.218048 368.830780,442.382507 
	C369.936951,442.696228 370.768127,442.850586 371.933716,443.088745 
	C372.495605,443.232544 372.721130,443.301605 373.279205,443.508179 
	C382.923615,445.305450 392.187195,448.132538 402.047821,444.654541 
	C402.856079,444.336548 403.332764,444.217865 404.180847,444.140686 
	C408.079407,445.255798 411.193329,443.632111 414.707947,442.461487 
	C415.227478,442.245422 415.437653,442.165283 415.967224,441.977844 
	C418.526764,441.025696 421.176727,441.210419 423.206482,438.964264 
	C431.054016,433.726318 439.099030,429.453278 445.653778,422.893829 
	C457.672577,410.866394 465.045837,396.607422 467.633728,379.837555 
	C467.811584,378.684937 468.062866,377.558594 468.619263,376.120575 
	C470.103607,370.786896 469.848755,365.781403 468.813171,360.420776 
	C466.582550,353.235291 465.559479,346.134827 462.817322,339.441376 
	C450.483978,309.336426 420.513153,290.669800 387.971069,292.307800 
	C371.105164,293.156769 356.692230,299.486847 343.127441,309.483643 
	C342.627045,309.778778 342.429352,309.891327 341.675171,310.334320 
	C340.950653,310.782959 340.782623,310.901215 340.174103,311.420288 
	C339.605957,311.967896 339.478333,312.114746 339.167603,312.486664 
	C338.501862,313.307190 337.966400,313.850769 337.163452,314.517883 
	C336.798584,314.797821 336.650665,314.904602 336.066895,315.324036 
	C335.492676,315.746124 335.354218,315.855621 334.819458,316.314575 
	C334.294983,316.786835 334.166779,316.909668 333.656738,317.415741 
	C333.147003,317.932434 333.019073,318.065948 332.502563,318.618591 
	C331.980194,319.184235 331.846466,319.330841 331.285156,319.929047 
	C329.673737,321.318542 328.682953,322.711182 326.651001,321.791809 
	C326.325195,316.889832 329.637573,313.913300 331.996918,310.678162 
	C339.170013,300.842407 347.280121,291.898376 358.715790,286.126953 
	C363.614014,283.224182 368.780060,282.116608 373.927094,280.984589 
	C377.294678,280.243927 380.230896,278.983429 381.910400,275.288208 
	C382.311066,274.828003 382.508392,274.651276 383.028198,274.242004 
	C387.613098,272.574921 392.015411,271.969635 396.870544,271.682068 
	C399.341217,271.493500 401.775482,270.883972 401.841125,274.645874 
	C403.894775,278.768829 407.147675,280.193756 411.097931,281.157593 
	C442.861786,288.907928 464.743286,307.940918 476.199005,339.070740 
	C477.798645,344.976440 478.976349,350.621643 480.311218,356.631226 
z"/>
<path fill="#FC6B6B" opacity="1.000000" stroke="none" 
	d="
M241.359192,431.989410 
	C242.740387,438.456665 243.782928,444.837830 244.912720,451.605591 
	C240.237305,454.239960 238.785843,457.820557 239.789230,463.018890 
	C241.711258,472.976318 243.162674,483.023651 244.946396,493.009186 
	C245.568466,496.491547 245.367828,498.270142 240.856033,498.144226 
	C228.211105,497.791382 215.550385,498.003906 202.431473,497.911743 
	C199.938019,495.694214 200.607224,493.161072 201.022903,490.731873 
	C205.483612,464.663483 209.761551,438.563995 214.292938,412.507843 
	C215.290543,406.771454 215.907745,400.973755 217.128754,395.276764 
	C217.613388,393.015533 217.806808,390.640839 219.697937,388.444885 
	C227.828049,387.653870 226.955078,387.088715 228.130798,394.271149 
	C229.741882,404.113281 231.439728,413.941254 233.096832,423.775879 
	C233.862045,428.317352 235.962845,431.550018 241.359192,431.989410 
z"/>
<path fill="#EEB987" opacity="1.000000" stroke="none" 
	d="
M194.715424,269.668091 
	C214.362976,273.932556 233.275925,273.181305 251.979538,264.658752 
	C251.979538,271.018829 251.944000,276.655670 252.004013,282.291473 
	C252.019409,283.737488 251.459732,284.815918 250.593613,285.880310 
	C240.093430,298.783905 229.613220,311.703766 219.112915,324.607300 
	C218.710770,325.101501 218.158447,325.473480 217.499435,326.059540 
	C209.586380,316.196320 201.785675,306.473145 193.859131,296.428284 
	C193.144073,287.385071 192.107086,278.652893 194.715424,269.668091 
z"/>
<path fill="#D6DAE2" opacity="1.000000" stroke="none" 
	d="
M179.744431,303.244080 
	C188.124298,313.598358 196.215622,323.727173 204.469772,333.721497 
	C206.243393,335.869019 206.899002,337.024261 204.062149,338.952423 
	C194.722809,345.300201 185.546265,351.892120 176.417877,358.542206 
	C174.212677,360.148682 173.322708,359.912933 172.121506,357.462738 
	C164.163986,341.230865 156.112930,325.043915 147.941528,308.918762 
	C146.750763,306.568939 147.391495,305.851440 149.528717,305.067169 
	C155.907806,302.726318 162.409821,300.604309 168.513046,297.667755 
	C172.741196,295.633423 175.207703,296.462280 177.337326,300.248383 
	C177.899429,301.247711 178.779877,302.067993 179.744431,303.244080 
z"/>
<path fill="#D6DAE2" opacity="1.000000" stroke="none" 
	d="
M287.539154,305.826477 
	C289.005310,307.603607 287.607483,308.698608 287.030182,309.866364 
	C279.314484,325.473328 271.453247,341.009216 263.860992,356.675598 
	C262.242493,360.015350 261.089661,360.061005 258.244904,357.945374 
	C249.452728,351.406616 240.463013,345.128967 231.448181,338.897278 
	C229.185257,337.332977 228.803345,336.338928 230.722565,334.026642 
	C240.485535,322.263977 250.147980,310.413544 259.598053,298.399139 
	C261.512970,295.964600 263.055786,296.115631 265.433960,297.082092 
	C272.648468,300.013977 279.922485,302.799377 287.539154,305.826477 
z"/>
<path fill="#16A579" opacity="1.000000" stroke="none" 
	d="
M329.189209,415.705109 
	C327.304810,418.040833 329.248657,419.307526 330.162903,420.656464 
	C336.862701,430.541992 344.640228,439.415283 354.498016,446.329224 
	C356.088959,447.445038 357.423309,448.926727 358.942078,450.565674 
	C342.375610,444.802307 329.308624,434.061096 319.214691,419.722534 
	C285.776245,372.222778 305.862854,307.130402 358.578186,285.886169 
	C355.078369,289.176483 351.219543,292.512177 347.332153,295.814270 
	C338.896332,302.979950 332.133820,311.470612 327.016083,321.664734 
	C327.304932,324.446869 325.448090,326.288574 325.126282,328.886841 
	C324.947174,329.412109 324.863495,329.615845 324.625427,330.106110 
	C324.022156,331.086121 323.447723,331.716339 323.299133,332.894348 
	C323.044708,333.994019 322.752808,334.755157 322.248199,335.754059 
	C321.908051,336.355896 321.699890,336.688049 321.335876,337.260193 
	C321.090271,337.667053 320.992035,337.828613 320.750214,338.232086 
	C320.424377,338.799622 320.249268,339.129089 319.979675,339.727661 
	C319.815094,340.175140 319.753510,340.357941 319.606445,340.821320 
	C319.339325,341.908203 319.298370,342.728760 319.258575,343.893372 
	C318.972046,346.438293 318.419464,348.557495 317.177979,350.857239 
	C314.172699,358.843109 313.816132,366.701111 315.268372,375.024231 
	C315.658661,375.824799 315.792023,376.309143 315.875153,377.176941 
	C314.420624,382.303467 317.198700,386.468201 317.931824,391.229950 
	C318.198151,391.701477 318.308990,391.885101 318.553986,392.355865 
	C318.981232,393.399078 319.160675,394.191345 319.521790,395.224304 
	C319.678101,395.668182 319.737091,395.844574 319.874634,396.283569 
	C320.047424,396.888123 320.140839,397.230347 320.317993,397.813232 
	C320.462006,398.210602 320.521027,398.367645 320.672119,398.756104 
	C320.888550,399.291473 321.016571,399.593872 321.259766,400.112427 
	C321.371338,400.330109 321.593414,400.766785 321.701965,400.986389 
	C321.953674,401.501282 322.097504,401.796204 322.365295,402.309448 
	C322.571442,402.676117 322.654327,402.824188 322.859863,403.198181 
	C323.145081,403.734039 323.304688,404.045532 323.592041,404.598877 
	C323.810394,405.003326 323.897614,405.167633 324.116089,405.584839 
	C324.334869,406.010681 324.422333,406.183594 324.641113,406.627258 
	C324.857666,407.088196 324.942993,407.278320 325.146912,407.767181 
	C325.946716,409.996796 326.648407,411.914246 328.803772,413.277496 
	C329.188904,413.704498 329.314392,413.899567 329.505676,414.435364 
	C329.523254,415.001801 329.475037,415.227509 329.189209,415.705109 
z"/>
<path fill="#D7DBE4" opacity="1.000000" stroke="none" 
	d="
M52.732700,347.448242 
	C52.875656,350.823669 50.602222,353.463501 49.281990,356.475861 
	C45.199638,365.790497 44.207649,375.745300 44.127960,385.624664 
	C43.828804,422.714264 44.012794,459.807770 44.016777,497.356567 
	C29.907440,498.323517 32.696190,498.871857 32.672913,487.278595 
	C32.606667,454.282959 32.529190,421.282959 32.997150,388.292389 
	C33.228199,372.003937 40.502327,358.541046 52.732700,347.448242 
z"/>
<path fill="#E4E9F7" opacity="1.000000" stroke="none" 
	d="
M391.952911,498.001343 
	C378.468414,498.001312 365.474487,497.903992 352.484070,498.073669 
	C349.465668,498.113068 348.501190,497.415314 348.581177,494.260254 
	C348.809021,485.271118 348.705322,476.272125 348.634033,467.277771 
	C348.613525,464.688232 348.655548,463.039520 352.100677,464.500671 
	C367.377472,470.980011 383.339935,473.558319 399.879974,472.112122 
	C402.875183,471.850250 403.086212,473.197815 403.047150,475.514221 
	C402.948822,481.342621 402.783112,487.186127 403.094208,492.999542 
	C403.310577,497.042480 401.865784,498.509613 397.937195,498.038177 
	C396.130920,497.821442 394.277039,498.001343 391.952911,498.001343 
z"/>
<path fill="#E65354" opacity="1.000000" stroke="none" 
	d="
M219.548859,388.034698 
	C217.495392,403.095520 214.964645,418.055481 212.491119,433.024872 
	C208.968948,454.340454 205.488785,475.662994 201.978851,497.406311 
	C189.751831,498.603363 189.777237,498.607635 191.817398,486.482361 
	C196.964462,455.892029 202.193542,425.314636 207.113098,394.687622 
	C207.934418,389.574524 209.435196,386.692017 215.119064,387.853424 
	C216.397476,388.114655 217.768661,387.921844 219.548859,388.034698 
z"/>
<path fill="#EEBA88" opacity="1.000000" stroke="none" 
	d="
M161.592590,133.789276 
	C161.962357,153.116486 161.947525,172.221527 161.999451,191.326416 
	C162.064117,215.111603 171.882065,234.172470 190.164764,249.079559 
	C190.958908,249.727066 191.725052,250.304916 191.948685,251.720917 
	C171.036163,244.328949 158.411987,229.020035 152.206284,208.017258 
	C151.131775,204.380615 150.842484,200.511948 150.261673,196.346985 
	C150.776306,175.232147 150.312393,154.517303 150.800201,133.376984 
	C151.475418,132.888947 151.921204,132.829117 152.690582,132.878464 
	C155.689133,134.120041 158.509979,133.182159 161.592590,133.789276 
z"/>
<path fill="#3F4A59" opacity="1.000000" stroke="none" 
	d="
M181.704010,23.196823 
	C177.701736,28.442295 171.645264,31.689617 166.846207,36.486084 
	C148.615082,54.707378 138.367310,76.327477 136.827652,102.203659 
	C136.404694,109.312172 135.651031,116.351044 136.779022,123.761078 
	C135.562195,128.670578 131.084808,131.574326 126.678062,130.947037 
	C125.085274,130.720322 124.917915,129.715210 124.870018,128.495041 
	C123.908096,103.990868 124.843285,79.918152 139.226837,58.514072 
	C149.890717,42.645214 163.668686,30.623125 181.704010,23.196823 
z"/>
<path fill="#DEA570" opacity="1.000000" stroke="none" 
	d="
M134.681763,180.619995 
	C134.826553,182.441483 134.826553,183.915176 134.826553,185.391632 
	C124.431656,185.026657 116.277428,176.836517 115.767006,166.346985 
	C115.278442,156.306671 123.512711,146.057358 132.962311,144.912888 
	C134.060425,144.779892 134.972519,144.761261 134.899719,146.632690 
	C133.296585,153.032379 129.949371,158.476639 130.395676,165.099274 
	C130.761902,170.533783 133.619873,175.099716 134.681763,180.619995 
z"/>
<path fill="#E85254" opacity="1.000000" stroke="none" 
	d="
M219.715210,349.603638 
	C225.056381,352.877411 229.958420,356.303131 234.932129,359.621429 
	C236.745544,360.831268 236.798340,361.969025 235.549255,363.651733 
	C233.668213,366.185760 231.977264,368.860870 229.962006,371.723877 
	C225.482147,373.056366 221.121780,372.786713 216.923111,372.310028 
	C210.579971,371.589874 206.585403,361.009186 210.568893,355.997894 
	C212.849030,353.129425 215.583389,350.680817 219.715210,349.603638 
z"/>
<path fill="#E0A670" opacity="1.000000" stroke="none" 
	d="
M309.230927,181.541534 
	C308.773193,182.198532 308.614807,182.532730 308.351288,182.685715 
	C305.623840,184.268738 302.308990,186.634369 299.712616,185.367859 
	C297.457428,184.267792 298.890564,180.258621 298.854980,177.558167 
	C298.728455,167.962128 298.793701,158.363358 298.810486,148.765671 
	C298.819366,143.673035 299.244995,143.339996 304.108582,145.251251 
	C306.089783,146.029800 307.888245,147.273239 309.960632,148.597137 
	C311.480377,158.373642 310.652222,167.899277 310.676453,177.408051 
	C310.679871,178.746002 310.049286,179.945801 309.230927,181.541534 
z"/>
<path fill="#DEA570" opacity="1.000000" stroke="none" 
	d="
M194.771866,269.190582 
	C194.570511,278.068115 195.775375,286.843262 194.064758,295.828979 
	C190.755463,292.584320 187.689682,289.131744 184.826202,285.518829 
	C182.291016,282.320099 183.707123,278.473877 183.630035,274.942963 
	C183.427338,265.657776 183.560730,265.657501 192.078171,268.383972 
	C192.864258,268.635620 193.670197,268.825317 194.771866,269.190582 
z"/>
<path fill="#C83A41" opacity="1.000000" stroke="none" 
	d="
M219.921722,349.233521 
	C217.506638,351.722961 214.852249,353.912079 212.277176,356.190887 
	C209.310593,358.816132 209.791718,361.527130 211.232117,365.052246 
	C214.817230,373.825989 222.077560,371.981537 229.276276,371.967041 
	C224.842926,374.328247 219.573685,371.962128 214.713165,373.077301 
	C205.963913,375.084686 203.244064,368.740997 199.704727,363.229340 
	C198.800674,361.821503 198.992630,360.812683 200.328476,359.868469 
	C205.613434,356.133026 210.889221,352.384460 216.149689,348.614624 
	C217.485138,347.657562 218.617416,347.968323 219.921722,349.233521 
z"/>
<path fill="#EAB787" opacity="1.000000" stroke="none" 
	d="
M309.311646,181.873749 
	C309.334747,171.129974 308.329376,160.288284 309.843201,149.186737 
	C320.993347,158.564758 320.782074,172.237442 309.311646,181.873749 
z"/>
<path fill="#EEBB8A" opacity="1.000000" stroke="none" 
	d="
M134.902283,180.506073 
	C126.978745,170.026596 126.816254,158.746445 134.586884,147.263428 
	C134.878952,158.039429 134.928482,169.041916 134.902283,180.506073 
z"/>
<path fill="#DDBA99" opacity="1.000000" stroke="none" 
	d="
M150.615356,133.113663 
	C150.937607,153.714890 150.845612,174.480988 150.543243,195.595306 
	C149.660812,175.056519 149.906387,154.167587 150.615356,133.113663 
z"/>
<path fill="#37A585" opacity="1.000000" stroke="none" 
	d="
M383.300598,274.726837 
	C383.006958,275.010559 382.560242,275.014954 382.337006,275.009857 
	C381.586761,272.209595 382.181641,270.701691 385.590454,270.931061 
	C390.053009,271.231323 394.554443,271.110504 399.032318,270.963226 
	C401.387207,270.885773 402.462646,271.673370 402.156097,274.494202 
	C400.804596,273.742401 400.311646,271.328705 397.375427,271.994202 
	C392.612000,273.255768 387.766937,272.008392 383.300598,274.726837 
z"/>
<path fill="#2AA783" opacity="1.000000" stroke="none" 
	d="
M480.519165,356.613892 
	C477.574554,351.817078 477.573212,345.880310 476.143982,339.881348 
	C478.970856,344.688171 479.619690,350.499542 480.519165,356.613892 
z"/>
<path fill="#2AA783" opacity="1.000000" stroke="none" 
	d="
M480.865173,377.534027 
	C479.280792,371.908020 480.079041,365.796936 480.554443,359.364563 
	C481.616089,365.046478 481.357300,371.074158 480.865173,377.534027 
z"/>
<path fill="#2AA783" opacity="1.000000" stroke="none" 
	d="
M478.434998,390.238495 
	C477.694275,387.006897 478.643036,383.674469 479.960083,380.182678 
	C480.614655,383.455566 479.457825,386.660858 478.434998,390.238495 
z"/>
<path fill="#A1A3A8" opacity="1.000000" stroke="none" 
	d="
M294.432495,331.829102 
	C293.959320,331.981140 293.761200,331.943787 293.262756,331.941528 
	C293.846313,329.961639 294.730225,327.946747 296.060333,324.914703 
	C296.713196,328.328064 295.138214,329.825195 294.432495,331.829102 
z"/>
<path fill="#DDBA99" opacity="1.000000" stroke="none" 
	d="
M161.965454,133.782959 
	C159.166595,133.764526 156.332581,134.467468 153.301758,133.266174 
	C155.717285,132.963531 158.420410,132.939407 161.566559,133.005981 
	C162.009583,133.096664 161.983353,133.554398 161.965454,133.782959 
z"/>
<path fill="#2AA783" opacity="1.000000" stroke="none" 
	d="
M476.250916,397.755829 
	C475.947388,395.687103 475.801300,393.320221 477.867371,391.179260 
	C478.216339,393.294312 477.180176,395.340271 476.250916,397.755829 
z"/>
<path fill="#2AA783" opacity="1.000000" stroke="none" 
	d="
M474.274811,402.807251 
	C473.861145,401.303040 474.410767,399.781250 475.751221,398.211914 
	C476.131897,399.726196 475.138611,401.084106 474.274811,402.807251 
z"/>
<path fill="#2AA783" opacity="1.000000" stroke="none" 
	d="
M472.375854,407.100067 
	C472.276154,406.672821 472.430542,406.040497 472.865601,405.223389 
	C472.974182,405.657410 472.802032,406.276215 472.375854,407.100067 
z"/>
<path fill="#2AA783" opacity="1.000000" stroke="none" 
	d="
M473.343201,404.937561 
	C473.245422,404.537781 473.391083,403.952332 473.791412,403.188538 
	C473.892914,403.590759 473.739777,404.171356 473.343201,404.937561 
z"/>
<path fill="#000502" opacity="1.000000" stroke="none" 
	d="
M314.648987,378.440552 
	C314.726746,377.573639 314.696472,377.102509 314.527222,376.303772 
	C312.271820,367.434723 314.405823,359.094238 315.876373,350.379150 
	C316.801605,348.023499 317.433167,345.997162 318.070953,343.608459 
	C318.620819,342.401825 318.434479,341.408569 318.906403,340.261047 
	C319.174133,340.027100 319.072906,340.044952 319.091064,340.093018 
	C319.388397,339.607605 319.501038,339.019806 319.864319,338.229187 
	C320.067047,338.010742 320.002289,338.011353 320.018311,338.039490 
	C320.400452,337.602234 320.503723,337.043121 320.755188,336.242584 
	C321.293823,335.286255 321.676819,334.568695 322.063293,333.538635 
	C322.550293,332.284332 322.884766,331.260193 323.849182,330.246643 
	C324.097107,330.046265 324.025085,330.010559 324.038940,330.048279 
	C325.153259,325.872864 327.729065,322.585052 330.983795,319.358765 
	C331.293701,319.188934 331.184509,319.141541 331.184998,319.201050 
	C331.239288,318.886505 331.403656,318.572937 331.947021,318.217163 
	C332.198730,318.105347 332.094452,318.089417 332.101074,318.141724 
	C332.226288,317.853546 332.425262,317.567383 332.928436,317.203705 
	C333.163483,317.079437 333.070343,317.068512 333.075897,317.115051 
	C333.224182,316.841888 333.428558,316.567078 333.906006,316.192535 
	C334.125580,316.053833 334.047455,316.045685 334.051605,316.084747 
	C334.224335,315.829590 334.430237,315.564880 334.882935,315.183899 
	C335.086243,315.033234 335.016266,315.016296 335.025146,315.051208 
	C335.222717,314.808441 335.444611,314.560455 335.889893,314.178894 
	C336.645844,313.541260 337.211609,313.066864 337.897705,312.339722 
	C338.232178,311.827362 338.453979,311.574554 338.891113,311.184570 
	C339.097717,311.039703 339.024628,311.024628 339.031586,311.061279 
	C339.226288,310.811523 339.448090,310.554077 339.921692,310.195404 
	C340.144348,310.069366 340.056030,310.055420 340.057861,310.100098 
	C340.236084,309.812531 340.471588,309.530823 341.032593,309.199554 
	C352.476685,300.405762 364.687561,294.086639 378.854736,291.658875 
	C422.523743,284.175476 463.492401,314.333160 469.509338,358.786713 
	C471.414246,364.737946 470.125122,370.475494 470.125397,376.532867 
	C467.956451,387.214813 465.326324,397.246613 460.047546,406.431732 
	C451.601929,421.127075 439.722870,432.043701 424.141663,439.454163 
	C421.881683,441.761597 418.926514,441.436615 416.213928,442.737305 
	C415.887238,442.908173 415.960022,442.942322 415.963745,442.902283 
	C412.640503,443.955414 409.369568,445.268097 405.417694,445.339478 
	C404.555786,445.259186 404.087585,445.295502 403.305328,445.496033 
	C396.020538,447.642242 388.946686,447.202362 381.964264,446.064972 
	C378.905670,445.566742 375.697754,445.677795 372.400818,444.153381 
	C372.035828,443.885315 372.021545,443.967377 372.057007,443.945557 
	C370.992798,443.163605 369.692719,443.688751 368.289185,443.084534 
	C368.053802,442.801483 368.065643,442.895813 368.109131,442.876587 
	C367.609589,442.617950 367.031403,442.497070 366.230682,442.168488 
	C366.001770,441.982239 366.004150,442.004578 366.013123,441.997131 
	C365.291107,441.260803 364.298737,441.610565 363.205200,441.129578 
	C362.960144,440.892670 362.783691,440.735260 362.681396,440.794495 
	C362.154144,440.848175 361.776550,440.711639 361.216919,440.234924 
	C360.987610,440.025574 360.993835,439.996765 360.983337,440.008545 
	C360.575195,439.551392 359.994690,439.503693 359.218048,439.206421 
	C358.980957,439.051208 358.979279,438.994293 358.961060,439.016174 
	C357.173615,438.084778 355.190826,437.567505 353.273193,436.169464 
	C353.013916,435.950958 353.005096,436.003265 353.026550,435.987579 
	C352.581421,435.566284 351.971924,435.504089 351.243866,435.059082 
	C351.064423,434.822510 351.070587,434.907196 351.109985,434.891388 
	C350.159943,434.527222 349.365906,433.837341 348.254639,433.108093 
	C348.046570,432.877869 348.036865,432.955017 348.075439,432.950287 
	C347.819946,432.796692 347.565674,432.597137 347.169373,432.184753 
	C346.987610,432.022644 346.998871,431.998779 346.988770,432.007935 
	C346.567017,431.536591 345.940186,431.506348 345.263062,431.013916 
	C345.113678,430.759033 345.089508,430.880249 345.151154,430.875916 
	C344.860077,430.770660 344.569519,430.576630 344.192383,430.065430 
	C343.949554,429.513092 343.746979,429.278442 343.204773,429.078674 
	C342.574432,428.513153 341.924164,428.510071 341.302063,427.959534 
	C341.196533,427.680115 341.168823,427.812469 341.234863,427.798035 
	C340.451019,427.516144 340.158691,426.578003 339.254517,425.921570 
	C337.705841,424.159180 336.301544,422.677490 334.633667,421.038513 
	C333.973541,420.791992 333.633972,420.599121 333.246582,420.034485 
	C333.149872,419.751648 333.152374,419.872070 333.208374,419.849854 
	C332.876556,419.762329 332.558777,419.576996 332.268707,418.988953 
	C332.226562,418.706085 332.211761,418.835571 332.273224,418.813904 
	C331.582672,418.656830 331.542786,418.008972 331.193359,417.212708 
	C331.014282,416.970459 330.996033,416.999298 331.012695,416.996155 
	C330.781097,416.768982 330.542938,416.534607 330.196136,416.069794 
	C330.078674,415.848297 330.083038,415.942322 330.117310,415.910065 
	C329.726807,415.751373 329.417969,415.488647 329.177612,414.774231 
	C329.130157,414.458832 329.119629,414.178741 329.009949,414.091492 
	C326.248322,412.618835 325.533325,409.901062 324.256714,407.163086 
	C324.109100,406.858154 324.068573,406.931732 324.109131,406.942688 
	C323.817444,406.770630 323.533478,406.531555 323.186951,405.971619 
	C323.068085,405.716217 323.082581,405.349396 323.018616,405.177338 
	C322.527161,404.557648 322.524811,403.948761 322.202484,403.155090 
	C322.056915,402.904175 322.034637,402.976105 322.072205,402.978210 
	C321.576355,402.595917 321.523621,401.979858 321.206909,401.161316 
	C321.056671,400.904053 321.032532,400.975128 321.069824,400.979370 
	C320.574585,400.594513 320.523163,399.975555 320.214722,399.148132 
	C320.073395,398.884369 320.083557,398.974396 320.127106,398.961853 
	C319.474976,398.550262 319.521912,397.780640 319.217926,396.814423 
	C319.159637,396.471802 319.236786,396.233215 319.158203,396.135529 
	C318.262146,395.357910 318.620331,394.368317 318.206024,393.264282 
	C317.994019,393.002228 318.000000,393.000000 317.997559,393.002808 
	C316.325684,388.408783 314.784698,383.780670 314.648987,378.440552 
z"/>
<path fill="#2AA783" opacity="1.000000" stroke="none" 
	d="
M372.251251,444.200378 
	C382.007294,445.839050 392.034637,446.804993 402.588257,445.625061 
	C400.561188,448.306946 396.964294,447.578613 394.225067,447.671387 
	C386.893982,447.919617 379.508392,447.017883 372.251251,444.200378 
z"/>
<path fill="#16A579" opacity="1.000000" stroke="none" 
	d="
M383.418213,275.004456 
	C382.857513,272.634674 384.125397,271.913147 386.311890,271.972229 
	C389.562225,272.060059 392.816742,271.992645 396.534302,271.993286 
	C392.609253,272.996277 388.219360,273.997314 383.418213,275.004456 
z"/>
<path fill="#2AA783" opacity="1.000000" stroke="none" 
	d="
M330.966064,319.245514 
	C329.060059,322.680603 326.826416,326.172272 324.322815,329.874969 
	C323.604248,327.156616 324.960693,324.790344 326.700043,322.239868 
	C328.191559,321.113953 329.414978,320.208008 330.966064,319.245514 
z"/>
<path fill="#37A585" opacity="1.000000" stroke="none" 
	d="
M470.160461,376.657684 
	C469.783051,371.293396 469.728363,365.667633 469.684784,359.584503 
	C472.282745,364.777527 470.901520,370.608826 470.160461,376.657684 
z"/>
<path fill="#2AA783" opacity="1.000000" stroke="none" 
	d="
M405.316711,445.442261 
	C408.401489,444.440674 411.778992,443.658508 415.562012,442.869324 
	C412.803284,444.862762 409.522125,446.430481 405.316711,445.442261 
z"/>
<path fill="#2AA783" opacity="1.000000" stroke="none" 
	d="
M416.283325,442.935791 
	C418.038147,441.231232 420.751068,440.886658 423.532471,439.762482 
	C422.531189,443.069580 419.139587,441.990265 416.283325,442.935791 
z"/>
<path fill="#2AA783" opacity="1.000000" stroke="none" 
	d="
M353.163940,436.264709 
	C354.834839,436.822937 356.655762,437.694916 358.709717,438.802490 
	C356.710358,439.033325 354.797241,438.297760 353.163940,436.264709 
z"/>
<path fill="#2AA783" opacity="1.000000" stroke="none" 
	d="
M368.262390,443.108002 
	C369.220367,443.020233 370.386902,443.239014 371.822998,443.690765 
	C370.856781,443.957031 369.585968,444.239868 368.262390,443.108002 
z"/>
<path fill="#2AA783" opacity="1.000000" stroke="none" 
	d="
M348.173828,433.190033 
	C348.973114,433.361877 349.899689,433.845886 350.987793,434.602722 
	C349.909302,435.020538 348.952545,434.577911 348.173828,433.190033 
z"/>
<path fill="#2AA783" opacity="1.000000" stroke="none" 
	d="
M339.181580,425.968811 
	C339.766602,426.157684 340.423096,426.674438 341.190247,427.487396 
	C340.297150,427.730255 339.653687,427.180695 339.181580,425.968811 
z"/>
<path fill="#2AA783" opacity="1.000000" stroke="none" 
	d="
M363.171814,441.164185 
	C363.814789,441.109497 364.669403,441.326355 365.773071,441.766418 
	C365.142548,441.805054 364.263000,441.620392 363.171814,441.164185 
z"/>
<path fill="#2AA783" opacity="1.000000" stroke="none" 
	d="
M341.276611,427.979950 
	C341.693115,427.958252 342.189667,428.236359 342.829895,428.767212 
	C342.434570,428.773224 341.895630,428.526489 341.276611,427.979950 
z"/>
<path fill="#2AA783" opacity="1.000000" stroke="none" 
	d="
M351.207703,435.097900 
	C351.612091,435.041229 352.159790,435.259918 352.877747,435.725220 
	C352.482300,435.772339 351.916626,435.572815 351.207703,435.097900 
z"/>
<path fill="#2AA783" opacity="1.000000" stroke="none" 
	d="
M345.228699,431.043762 
	C345.633392,431.011169 346.153107,431.263306 346.825745,431.766296 
	C346.433716,431.787567 345.888733,431.558044 345.228699,431.043762 
z"/>
<path fill="#2AA783" opacity="1.000000" stroke="none" 
	d="
M359.160828,439.279846 
	C359.514130,439.232269 360.047302,439.413330 360.776672,439.807373 
	C360.428802,439.849762 359.884766,439.679138 359.160828,439.279846 
z"/>
<path fill="#2AA783" opacity="1.000000" stroke="none" 
	d="
M331.039978,417.284821 
	C331.409485,417.386963 331.804657,417.803436 332.267273,418.506104 
	C331.911682,418.394562 331.488708,417.996887 331.039978,417.284821 
z"/>
<path fill="#2AA783" opacity="1.000000" stroke="none" 
	d="
M366.188904,442.231781 
	C366.593079,442.111389 367.184357,442.240570 367.964111,442.613556 
	C367.560394,442.732025 366.968201,442.606689 366.188904,442.231781 
z"/>
<path fill="#2AA783" opacity="1.000000" stroke="none" 
	d="
M361.191040,440.262329 
	C361.388367,440.133087 361.789124,440.240631 362.384460,440.600952 
	C362.184204,440.735535 361.789368,440.617310 361.191040,440.262329 
z"/>
<path fill="#2AA783" opacity="1.000000" stroke="none" 
	d="
M341.016296,309.174713 
	C341.061401,309.386597 340.832794,309.681366 340.331940,310.060425 
	C340.287323,309.849030 340.514954,309.553314 341.016296,309.174713 
z"/>
<path fill="#2AA783" opacity="1.000000" stroke="none" 
	d="
M333.249512,420.034607 
	C333.469025,419.954559 333.788177,420.157501 334.238678,420.620850 
	C334.029755,420.693329 333.689484,420.505432 333.249512,420.034607 
z"/>
<path fill="#2AA783" opacity="1.000000" stroke="none" 
	d="
M347.115234,432.241364 
	C347.292297,432.170776 347.596954,432.318939 348.007843,432.706329 
	C347.823639,432.783752 347.533264,432.621918 347.115234,432.241364 
z"/>
<path fill="#2AA783" opacity="1.000000" stroke="none" 
	d="
M344.156433,430.093475 
	C344.363068,430.013550 344.682434,430.185791 345.107300,430.614807 
	C344.898254,430.696289 344.583740,430.520966 344.156433,430.093475 
z"/>
<path fill="#2AA783" opacity="1.000000" stroke="none" 
	d="
M334.847778,315.143250 
	C334.909058,315.332489 334.731873,315.631775 334.305237,316.027405 
	C334.240295,315.833618 334.424835,315.543427 334.847778,315.143250 
z"/>
<path fill="#2AA783" opacity="1.000000" stroke="none" 
	d="
M332.278992,418.984680 
	C332.519531,418.904877 332.812500,419.103668 333.184906,419.565033 
	C332.953369,419.639496 332.642395,419.451385 332.278992,418.984680 
z"/>
<path fill="#2AA783" opacity="1.000000" stroke="none" 
	d="
M330.159180,416.096069 
	C330.354095,416.056915 330.629517,416.265533 330.967163,416.733582 
	C330.766144,416.776642 330.502899,416.560242 330.159180,416.096069 
z"/>
<path fill="#2AA783" opacity="1.000000" stroke="none" 
	d="
M329.086517,414.833496 
	C329.413269,414.739136 329.696381,415.019409 330.065552,415.588745 
	C329.952454,415.901154 329.753296,415.924469 329.252899,415.952393 
	C328.982056,415.707367 329.012451,415.457733 329.086517,414.833496 
z"/>
<path fill="#2AA783" opacity="1.000000" stroke="none" 
	d="
M339.895752,310.161926 
	C339.947327,310.358551 339.750305,310.647705 339.295898,311.017395 
	C339.241425,310.816803 339.444275,310.535645 339.895752,310.161926 
z"/>
<path fill="#2AA783" opacity="1.000000" stroke="none" 
	d="
M338.856201,311.142609 
	C338.905457,311.329010 338.713226,311.618317 338.269531,311.997284 
	C338.216949,311.806488 338.415833,311.526001 338.856201,311.142609 
z"/>
<path fill="#2AA783" opacity="1.000000" stroke="none" 
	d="
M331.937561,318.202393 
	C332.031616,318.423492 331.864471,318.741608 331.441406,319.160156 
	C331.349121,318.940186 331.512756,318.619812 331.937561,318.202393 
z"/>
<path fill="#2AA783" opacity="1.000000" stroke="none" 
	d="
M332.909546,317.179596 
	C332.983429,317.387909 332.803345,317.696381 332.365479,318.099457 
	C332.290314,317.889282 332.472931,317.584534 332.909546,317.179596 
z"/>
<path fill="#2AA783" opacity="1.000000" stroke="none" 
	d="
M333.879456,316.160461 
	C333.948456,316.360596 333.771362,316.667358 333.337891,317.067902 
	C333.265411,316.863464 333.449371,316.565277 333.879456,316.160461 
z"/>
<path fill="#2AA783" opacity="1.000000" stroke="none" 
	d="
M335.843628,314.125458 
	C335.897491,314.310059 335.714874,314.604462 335.283142,314.992493 
	C335.225037,314.802490 335.416107,314.518860 335.843628,314.125458 
z"/>
<path fill="#279976" opacity="1.000000" stroke="none" 
	d="
M315.844055,350.255035 
	C315.075684,358.392548 313.433716,366.701019 314.493835,375.580536 
	C311.443634,372.898987 313.117462,369.109680 313.139679,365.735870 
	C313.173492,360.596344 313.141418,355.298340 315.844055,350.255035 
z"/>
<path fill="#279976" opacity="1.000000" stroke="none" 
	d="
M314.538025,378.349579 
	C315.830109,382.766846 316.903198,387.488892 317.985657,392.608276 
	C315.109283,388.647186 313.960419,383.843842 314.538025,378.349579 
z"/>
<path fill="#2AA783" opacity="1.000000" stroke="none" 
	d="
M324.080383,407.246338 
	C325.630493,409.031769 327.151886,411.205383 328.786743,413.691650 
	C324.761139,413.801453 324.794861,410.422272 324.080383,407.246338 
z"/>
<path fill="#2AA783" opacity="1.000000" stroke="none" 
	d="
M323.732788,330.092651 
	C323.607422,330.995544 323.117706,331.944855 322.347351,333.060120 
	C322.066376,332.013947 321.788361,330.684723 323.732788,330.092651 
z"/>
<path fill="#279976" opacity="1.000000" stroke="none" 
	d="
M317.994690,393.345276 
	C318.352661,393.790833 318.711304,394.579407 319.074768,395.702911 
	C318.189087,395.498810 318.009674,394.631653 317.994690,393.345276 
z"/>
<path fill="#2AA783" opacity="1.000000" stroke="none" 
	d="
M318.876038,340.234436 
	C318.971710,340.931610 318.769318,341.836151 318.322021,342.993408 
	C318.244110,342.311340 318.411011,341.376556 318.876038,340.234436 
z"/>
<path fill="#2AA783" opacity="1.000000" stroke="none" 
	d="
M319.807465,338.186798 
	C319.921906,338.607758 319.776794,339.204773 319.370453,339.971436 
	C319.255463,339.548340 319.401672,338.955597 319.807465,338.186798 
z"/>
<path fill="#2AA783" opacity="1.000000" stroke="none" 
	d="
M322.065735,403.207458 
	C322.375031,403.401581 322.693146,403.898956 322.982971,404.700806 
	C322.661316,404.507111 322.367950,404.008911 322.065735,403.207458 
z"/>
<path fill="#2AA783" opacity="1.000000" stroke="none" 
	d="
M321.067688,401.218262 
	C321.388916,401.392578 321.721161,401.881073 322.081604,402.674927 
	C321.766113,402.497681 321.422424,402.015045 321.067688,401.218262 
z"/>
<path fill="#2AA783" opacity="1.000000" stroke="none" 
	d="
M320.082336,399.199829 
	C320.401245,399.378632 320.729095,399.872925 321.082031,400.675385 
	C320.768524,400.494171 320.429901,400.004730 320.082336,399.199829 
z"/>
<path fill="#279976" opacity="1.000000" stroke="none" 
	d="
M319.137146,396.837036 
	C319.479462,397.067047 319.799255,397.662323 320.144867,398.603455 
	C319.818634,398.366974 319.466644,397.784637 319.137146,396.837036 
z"/>
<path fill="#2AA783" opacity="1.000000" stroke="none" 
	d="
M320.686401,336.193848 
	C320.767273,336.560303 320.623718,337.116821 320.257263,337.870483 
	C320.176849,337.506409 320.319397,336.945160 320.686401,336.193848 
z"/>
<path fill="#2AA783" opacity="1.000000" stroke="none" 
	d="
M323.161011,405.989685 
	C323.376251,405.942139 323.684418,406.168091 324.071136,406.673828 
	C323.851105,406.723480 323.552521,406.493286 323.161011,405.989685 
z"/>
<path fill="#40EDBA" opacity="1.000000" stroke="none" 
	d="
M401.338287,430.223267 
	C400.558350,430.495697 400.132355,430.650787 399.362091,430.782593 
	C398.474731,430.565704 397.914948,430.477753 396.908264,430.493530 
	C392.724396,430.391724 388.964630,430.702240 384.786591,430.251709 
	C384.056519,430.307617 383.755432,430.430969 383.235901,430.389465 
	C380.586945,428.863342 377.751312,429.154205 374.785461,428.256531 
	C374.045593,428.194580 373.715149,428.182404 373.167297,428.035095 
	C372.519806,427.492706 371.936798,427.506927 371.174866,427.211426 
	C370.931702,427.078644 371.000000,427.001221 370.965576,427.040527 
	C334.052460,403.492737 326.788208,346.568146 364.882721,313.578583 
	C366.283447,312.365570 368.006714,311.678589 369.691010,310.230469 
	C369.969910,309.959320 369.995483,310.001984 369.978363,309.982452 
	C370.410492,309.605957 370.952515,309.514740 371.726440,309.277771 
	C397.116364,298.731079 429.830597,310.149323 445.182007,334.685822 
	C465.881653,367.770538 452.908569,409.761200 416.603149,426.090393 
	C414.688354,426.627533 413.029938,426.824036 411.281830,427.816528 
	C411.019440,428.053040 411.022125,427.994415 411.041107,428.016785 
	C407.959076,428.826111 404.663452,428.730804 401.338287,430.223267 
z"/>
<path fill="#23CC9F" opacity="1.000000" stroke="none" 
	d="
M369.596527,309.939697 
	C370.014282,311.754150 368.611481,312.375549 367.452881,313.347046 
	C348.759064,329.021942 339.514008,349.228058 341.245026,373.439026 
	C342.727692,394.176636 352.151764,411.420471 368.868866,424.304199 
	C369.626068,424.887817 370.211975,425.693726 370.904419,426.737946 
	C355.914886,422.575806 345.292786,412.630493 337.567749,399.452301 
	C318.323334,366.623108 333.691925,323.376862 369.596527,309.939697 
z"/>
<path fill="#52D3AD" opacity="1.000000" stroke="none" 
	d="
M401.354034,430.388672 
	C403.527100,427.488190 406.961853,428.121735 410.629517,428.010925 
	C408.158661,429.658844 404.916046,429.949829 401.354034,430.388672 
z"/>
<path fill="#5CE0B9" opacity="1.000000" stroke="none" 
	d="
M384.699463,430.494751 
	C388.598175,430.126007 392.838715,430.067749 397.549011,430.016602 
	C398.129852,430.165436 398.240936,430.307159 398.170746,430.649170 
	C393.671814,431.304230 389.355927,431.233398 384.699463,430.494751 
z"/>
<path fill="#5CE0B9" opacity="1.000000" stroke="none" 
	d="
M374.677887,428.480530 
	C377.263824,427.735962 380.010559,428.105133 382.794220,429.903961 
	C380.206787,430.453003 377.609039,429.517517 374.677887,428.480530 
z"/>
<path fill="#52D3AD" opacity="1.000000" stroke="none" 
	d="
M411.378967,428.063477 
	C411.885223,426.004761 413.655945,425.962036 415.866943,426.083252 
	C414.748016,426.775696 413.243256,427.424805 411.378967,428.063477 
z"/>
<path fill="#23CC9F" opacity="1.000000" stroke="none" 
	d="
M371.090027,427.330536 
	C371.483490,427.199890 372.035248,427.321167 372.768463,427.671204 
	C372.382721,427.794128 371.815552,427.688293 371.090027,427.330536 
z"/>
<path fill="#23CC9F" opacity="1.000000" stroke="none" 
	d="
M371.665283,309.090698 
	C371.485626,309.428131 371.014191,309.728027 370.251984,309.995422 
	C370.432007,309.659698 370.902771,309.356445 371.665283,309.090698 
z"/>
<path fill="#52D3AD" opacity="1.000000" stroke="none" 
	d="
M398.252930,430.899597 
	C397.989471,430.849426 398.004456,430.436310 398.011597,430.229980 
	C398.300873,430.090820 398.548492,430.222748 398.889679,430.589417 
	C398.850647,430.822815 398.683502,430.886292 398.252930,430.899597 
z"/>
<path fill="#000603" opacity="1.000000" stroke="none" 
	d="
M407.898499,354.899841 
	C411.026794,351.878418 413.794189,348.980316 416.803314,346.359863 
	C420.417267,343.212708 424.653046,343.292084 427.546204,346.268433 
	C430.467041,349.273132 430.589447,353.583252 427.161316,356.999329 
	C415.841095,368.279663 404.393311,379.434967 392.838318,390.474884 
	C389.473480,393.689728 385.465088,393.569153 382.064301,390.372009 
	C376.243683,384.900055 370.532013,379.302429 364.974915,373.563599 
	C361.688873,370.170074 361.769684,365.792267 364.700806,362.848114 
	C367.579071,359.957031 371.957428,359.940826 375.457031,363.068665 
	C378.432251,365.727783 381.366333,368.476776 383.987244,371.475616 
	C386.446564,374.289490 388.152069,374.685822 390.961334,371.652466 
	C396.271881,365.918304 402.056793,360.623474 407.898499,354.899841 
z"/>
</svg>